<svg width="12" height="8" viewBox="0 0 12 8" fill="none" xmlns="http://www.w3.org/2000/svg">
<path d="M4.83333 3.37083C5.49583 3.05417 5.84167 2.575 5.84167 1.82917C5.84167 0.358333 4.74583 0 3.48125 0H0V7.38333H3.57917C4.92083 7.38333 6.18125 6.73958 6.18125 5.23958C6.18125 4.3125 5.74167 3.62708 4.83333 3.37083ZM1.62292 1.26042H3.14583C3.73125 1.26042 4.25833 1.425 4.25833 2.10417C4.25833 2.73125 3.84792 2.98333 3.26875 2.98333H1.62292V1.26042ZM3.35833 6.12917H1.62292V4.09583H3.39167C4.10625 4.09583 4.55833 4.39375 4.55833 5.15C4.55833 5.89583 4.01875 6.12917 3.35833 6.12917ZM10.8271 1.11458H7.83333V0.3875H10.8271V1.11458ZM12 4.7875C12 3.20625 11.075 1.8875 9.39792 1.8875C7.76875 1.8875 6.6625 3.1125 6.6625 4.71667C6.6625 6.38125 7.71042 7.52292 9.39792 7.52292C10.675 7.52292 11.5021 6.94792 11.9 5.725H10.6042C10.4646 6.18125 9.88958 6.42292 9.44375 6.42292C8.58333 6.42292 8.13125 5.91875 8.13125 5.0625H11.9875C11.9938 4.975 12 4.88125 12 4.7875ZM8.13333 4.1375C8.18125 3.43542 8.64792 2.99583 9.35208 2.99583C10.0896 2.99583 10.4604 3.42917 10.5229 4.1375H8.13333Z" fill="black"/>
</svg>
