<svg width="12" height="11" viewBox="0 0 12 11" fill="none" xmlns="http://www.w3.org/2000/svg">
<path d="M2.58516 0.708534C3.95391 1.73275 5.42578 3.814 5.96484 4.93197C6.50391 3.81635 7.97578 1.7351 9.34453 0.708534C10.3313 -0.0320912 11.9297 -0.603966 11.9297 1.21947C11.9297 1.58275 11.7211 4.27806 11.5992 4.71635C11.1727 6.2351 9.62109 6.62416 8.24063 6.38744C10.6523 6.7976 11.2664 8.15697 9.93984 9.51635C7.42266 12.0992 6.32344 8.86947 6.04219 8.04213C6.00234 7.92728 5.98125 7.85931 5.96484 7.85931C5.94844 7.85931 5.92734 7.92963 5.8875 8.04213C5.60625 8.86947 4.50469 12.0992 1.98984 9.51635C0.665625 8.15697 1.27734 6.7976 3.68906 6.38744C2.30859 6.62416 0.757031 6.2351 0.332812 4.714C0.208594 4.27572 0 1.58041 0 1.21713C0 -0.60631 1.59844 -0.034435 2.58516 0.70619V0.708534Z" fill="black"/>
</svg>
