<svg width="12" height="12" viewBox="0 0 12 12" fill="none" xmlns="http://www.w3.org/2000/svg">
<g clip-path="url(#clip0_4104_5676)">
<path d="M6 11.298C9.314 11.298 12 9.12903 12 6.45403C12 4.79503 10.9715 3.33003 9.3905 2.46103C8.7475 2.10353 8.242 1.78253 7.821 1.51603C7.029 1.01253 6.54 0.702026 6 0.702026C5.4515 0.702026 4.833 1.09453 4.017 1.61253C3.55711 1.91074 3.08752 2.19373 2.609 2.46103C1.0285 3.33003 0 4.79503 0 6.45403C0 9.12903 2.686 11.2975 6 11.2975V11.298ZM5.2995 2.35753C5.4665 1.97803 5.551 1.56753 5.5485 1.15303C5.5485 1.08053 5.6495 1.05953 5.6635 1.13853C5.9925 2.53003 5.2125 3.21953 4.635 3.45053C4.573 3.47453 4.5355 3.39003 4.5835 3.34603C4.89002 3.07143 5.13416 2.73437 5.2995 2.35753ZM6.3285 2.30653C6.28092 1.89892 6.14767 1.50599 5.9375 1.15353V1.14553C5.903 1.08403 5.9805 1.01403 6.03 1.05953C7.011 2.11503 6.6835 3.09303 6.308 3.58503C6.267 3.63653 6.193 3.58353 6.2135 3.52203C6.33691 3.12946 6.3761 2.71527 6.3285 2.30653ZM7.2165 2.02603C7.01524 1.67103 6.74044 1.36316 6.4105 1.12303V1.11603C6.3545 1.07353 6.3985 0.979026 6.4675 1.00703C7.765 1.55053 7.8545 2.59703 7.697 3.21053C7.6937 3.22507 7.68493 3.23778 7.6725 3.24603C7.66062 3.25441 7.6459 3.25775 7.63157 3.25532C7.61723 3.25288 7.60444 3.24487 7.596 3.23303C7.58743 3.22098 7.58352 3.20624 7.585 3.19153C7.54502 2.78153 7.41948 2.38448 7.2165 2.02603ZM4.673 2.30653C4.3645 2.57953 4.032 2.68653 3.6415 2.80653C3.583 2.80653 3.544 2.76753 3.5635 2.71603C4.4395 2.26153 4.7515 1.89153 5.063 1.32703C5.063 1.32703 5.1405 1.26803 5.157 1.36953C5.157 1.52153 4.9825 2.03403 4.673 2.30653ZM7.1455 7.92503C7.07453 8.22655 6.91065 8.49816 6.677 8.70153C6.504 8.87453 6.277 8.98403 6.034 9.01153C5.78368 8.98789 5.54925 8.87836 5.3705 8.70153C5.13901 8.49736 4.97727 8.22582 4.908 7.92503C4.90571 7.90719 4.90739 7.88906 4.91292 7.87194C4.91845 7.85483 4.9277 7.83915 4.94 7.82603C4.95241 7.81333 4.96755 7.80363 4.98427 7.79765C5.00099 7.79167 5.01885 7.78958 5.0365 7.79153H7.019C7.03647 7.78957 7.05415 7.79172 7.07064 7.79779C7.08713 7.80387 7.10198 7.81371 7.114 7.82653C7.139 7.85303 7.1505 7.88903 7.1455 7.92503ZM4.4165 6.83703C4.23518 6.9602 4.01622 7.01544 3.79817 6.99304C3.58012 6.97063 3.37698 6.872 3.2245 6.71453C3.07007 6.55354 2.97455 6.34512 2.9534 6.12304C2.93226 5.90097 2.98673 5.67826 3.108 5.49103C3.2115 5.33153 3.3595 5.20803 3.532 5.13453C3.70417 5.06108 3.89464 5.04189 4.078 5.07953C4.261 5.11703 4.4295 5.21003 4.5615 5.34503C4.69385 5.48275 4.78353 5.65583 4.81972 5.84338C4.85592 6.03092 4.83709 6.22494 4.7655 6.40203C4.6944 6.57802 4.57301 6.72965 4.4165 6.83703ZM8.664 6.83953C8.48243 6.96199 8.26347 7.01645 8.04569 6.99331C7.82791 6.97017 7.62528 6.87091 7.4735 6.71303C7.29727 6.5294 7.19921 6.28453 7.2 6.03003C7.2 5.83803 7.255 5.65003 7.36 5.49053C7.4635 5.33103 7.6115 5.20703 7.7845 5.13403C7.95695 5.06093 8.14758 5.0421 8.331 5.08003C8.5145 5.11803 8.683 5.21103 8.815 5.34703C8.94697 5.48532 9.03608 5.65886 9.07157 5.84669C9.10706 6.03453 9.08741 6.22862 9.015 6.40553C8.94326 6.58158 8.82116 6.73255 8.664 6.83953Z" fill="black"/>
</g>
<defs>
<clipPath id="clip0_4104_5676">
<rect width="12" height="12" fill="white"/>
</clipPath>
</defs>
</svg>
