<svg width="12" height="9" viewBox="0 0 12 9" fill="none" xmlns="http://www.w3.org/2000/svg">
<path d="M9.34745 0.709436C9.34439 0.703498 9.33931 0.698846 9.33313 0.696311C8.61832 0.368348 7.86399 0.134485 7.08902 0.000573631C7.08198 -0.000735323 7.0747 0.000208972 7.06823 0.00327222C7.06175 0.00633547 7.05641 0.0113617 7.05296 0.0176361C6.95024 0.204065 6.857 0.395559 6.77358 0.591386C5.93821 0.464577 5.08848 0.464577 4.2531 0.591386C4.16913 0.395062 4.07439 0.20352 3.96932 0.0176361C3.96571 0.0114981 3.96034 0.00658758 3.95391 0.00354423C3.94747 0.000500883 3.94027 -0.000534274 3.93324 0.000573631C3.15819 0.134204 2.40381 0.368085 1.68909 0.69633C1.68297 0.698924 1.67781 0.703353 1.67432 0.709005C0.245022 2.84347 -0.146515 4.92545 0.0455599 6.98165C0.0461002 6.98669 0.0476485 6.99157 0.0501126 6.996C0.0525768 7.00043 0.0559065 7.00431 0.0599036 7.00743C0.892168 7.62366 1.82307 8.09403 2.81287 8.39847C2.81984 8.40057 2.82729 8.40047 2.8342 8.39821C2.84112 8.39594 2.84717 8.39161 2.85155 8.3858C3.06414 8.09654 3.25251 7.79024 3.41475 7.47001C3.41698 7.46562 3.41825 7.4608 3.41848 7.45588C3.41871 7.45096 3.4179 7.44604 3.4161 7.44146C3.41429 7.43687 3.41153 7.43272 3.40801 7.42928C3.40448 7.42584 3.40027 7.42318 3.39564 7.42149C3.0986 7.30783 2.81102 7.17082 2.53562 7.01174C2.53061 7.0088 2.52641 7.00467 2.52338 6.99972C2.52035 6.99478 2.51859 6.98916 2.51825 6.98336C2.5179 6.97757 2.51899 6.97178 2.52142 6.96651C2.52384 6.96124 2.52753 6.95664 2.53215 6.95313C2.58994 6.90984 2.64776 6.8648 2.70294 6.81931C2.70784 6.81527 2.71378 6.81269 2.72007 6.81184C2.72636 6.81099 2.73277 6.81192 2.73857 6.81451C4.54286 7.63796 6.49625 7.63796 8.27919 6.81451C8.285 6.81175 8.29148 6.81069 8.29786 6.81147C8.30425 6.81224 8.31028 6.81481 8.31527 6.81888C8.37047 6.86437 8.42827 6.90984 8.48649 6.95313C8.49114 6.95661 8.49486 6.96117 8.49732 6.96642C8.49978 6.97168 8.50091 6.97745 8.50061 6.98325C8.50031 6.98904 8.49859 6.99467 8.4956 6.99964C8.4926 7.00461 8.48843 7.00877 8.48345 7.01174C8.20867 7.17216 7.92084 7.30908 7.62302 7.42106C7.61839 7.42282 7.61419 7.42553 7.61069 7.42903C7.60718 7.43252 7.60446 7.43672 7.60269 7.44134C7.60092 7.44596 7.60014 7.4509 7.60042 7.45584C7.60069 7.46078 7.602 7.46561 7.60427 7.47001C7.76922 7.78846 7.95731 8.09437 8.16703 8.38529C8.17129 8.39126 8.17731 8.39574 8.18425 8.3981C8.19119 8.40045 8.1987 8.40056 8.20571 8.39842C9.19729 8.09501 10.1298 7.62459 10.9631 7.00743C10.9672 7.00447 10.9706 7.00068 10.973 6.9963C10.9755 6.99193 10.977 6.98708 10.9775 6.98208C11.2074 4.6049 10.5925 2.53998 9.34745 0.709436ZM3.6842 5.72964C3.14098 5.72964 2.69338 5.23113 2.69338 4.61891C2.69338 4.00668 3.1323 3.50814 3.6842 3.50814C4.24042 3.50814 4.68369 4.01101 4.67501 4.61887C4.67501 5.23113 4.23607 5.72964 3.6842 5.72964ZM7.34758 5.72964C6.80437 5.72964 6.35677 5.23113 6.35677 4.61891C6.35677 4.00668 6.79569 3.50814 7.34758 3.50814C7.90383 3.50814 8.34708 4.01101 8.3384 4.61887C8.3384 5.23113 7.90383 5.72964 7.34758 5.72964Z" fill="black"/>
</svg>
