<svg width="12" height="12" viewBox="0 0 12 12" fill="none" xmlns="http://www.w3.org/2000/svg">
<g clip-path="url(#clip0_4104_5655)">
<path d="M6.56047 5.63067H5.32109V4.51692H6.56047V5.63067ZM6.56047 1.80005H5.32109V2.93817H6.56047V1.80005ZM8.02672 4.51505H6.78734V5.6288H8.02672V4.51505ZM5.09609 3.16317H3.85672V4.29005H5.09609V3.16317ZM6.56047 3.16317H5.32109V4.29005H6.56047V3.16317ZM11.7505 5.03817C11.4805 4.8563 10.858 4.79067 10.3798 4.88067C10.318 4.43067 10.0667 4.0388 9.60922 3.6863L9.34672 3.51192L9.17234 3.77442C8.82734 4.29567 8.73359 5.15442 9.10297 5.72067C8.93984 5.8088 8.61922 5.9288 8.19547 5.9213H0.0448407C-0.118284 6.8738 0.153591 8.1113 0.869841 8.96067C1.56547 9.7838 2.60797 10.2019 3.97109 10.2019C6.92234 10.2019 9.10672 8.84255 10.1286 6.37317C10.5298 6.38067 11.3961 6.37505 11.8405 5.52567C11.8686 5.4788 11.9642 5.27817 11.9998 5.20505L11.7505 5.03817ZM2.16734 4.51505H0.929841V5.6288H2.16922V4.51505H2.16734ZM3.63172 4.51505H2.39234V5.6288H3.63172V4.51505ZM5.09609 4.51505H3.85672V5.6288H5.09609V4.51505ZM3.63172 3.16317H2.39234V4.29005H3.63172V3.16317Z" fill="black"/>
</g>
<defs>
<clipPath id="clip0_4104_5655">
<rect width="12" height="12" fill="white"/>
</clipPath>
</defs>
</svg>
