<svg width="12" height="12" viewBox="0 0 12 12" fill="none" xmlns="http://www.w3.org/2000/svg">
<g clip-path="url(#clip0_4104_5685)">
<path d="M0 10.042C0.0215 10.307 0.115 10.5735 0.359 10.931C0.649 11.3555 1.147 11.5885 1.5105 11.2145C1.7555 10.962 4.4075 6.32652 5.6855 4.56952C5.72057 4.51929 5.76724 4.47827 5.82156 4.44994C5.87588 4.42161 5.93624 4.40682 5.9975 4.40682C6.05876 4.40682 6.11912 4.42161 6.17344 4.44994C6.22776 4.47827 6.27443 4.51929 6.3095 4.56952C7.5875 6.32652 10.2395 10.962 10.4845 11.2145C10.848 11.5885 11.346 11.3555 11.636 10.931C11.921 10.5135 12 10.221 12 9.90802C12 9.69502 7.87 2.00902 7.454 1.36902C7.054 0.754022 6.932 0.620022 6.2555 0.598022H5.7395C5.063 0.620022 4.941 0.753522 4.5405 1.36902C4.1335 1.99552 0.165 9.37902 0 9.88502V10.042Z" fill="black"/>
</g>
<defs>
<clipPath id="clip0_4104_5685">
<rect width="12" height="12" fill="white"/>
</clipPath>
</defs>
</svg>
