<svg width="17" height="17" viewBox="0 0 17 17" fill="none" xmlns="http://www.w3.org/2000/svg">
<path d="M17 8.5C17 8.5 13.8125 2.65625 8.5 2.65625C3.1875 2.65625 0 8.5 0 8.5C0 8.5 3.1875 14.3438 8.5 14.3438C13.8125 14.3438 17 8.5 17 8.5ZM1.24631 8.5C1.75927 7.71862 2.35021 6.99133 3.01006 6.32931C4.3775 4.95975 6.2475 3.71875 8.5 3.71875C10.7525 3.71875 12.6214 4.95975 13.991 6.32931C14.6508 6.99133 15.2418 7.71862 15.7548 8.5C15.6938 8.59208 15.6248 8.69408 15.5476 8.806C15.1916 9.316 14.6657 9.996 13.991 10.6707C12.6214 12.0403 10.7514 13.2812 8.5 13.2812C6.24856 13.2812 4.37856 12.0403 3.009 10.6707C2.34915 10.0087 1.75927 9.28138 1.24631 8.5Z" fill="black"/>
<path d="M8.5 5.84375C7.79552 5.84375 7.11989 6.1236 6.62175 6.62175C6.1236 7.11989 5.84375 7.79552 5.84375 8.5C5.84375 9.20448 6.1236 9.88011 6.62175 10.3783C7.11989 10.8764 7.79552 11.1562 8.5 11.1562C9.20448 11.1562 9.88011 10.8764 10.3783 10.3783C10.8764 9.88011 11.1562 9.20448 11.1562 8.5C11.1562 7.79552 10.8764 7.11989 10.3783 6.62175C9.88011 6.1236 9.20448 5.84375 8.5 5.84375ZM4.78125 8.5C4.78125 7.51373 5.17305 6.56785 5.87045 5.87045C6.56785 5.17305 7.51373 4.78125 8.5 4.78125C9.48627 4.78125 10.4322 5.17305 11.1296 5.87045C11.827 6.56785 12.2187 7.51373 12.2188 8.5C12.2188 9.48627 11.827 10.4322 11.1296 11.1296C10.4322 11.827 9.48627 12.2188 8.5 12.2188C7.51373 12.2188 6.56785 11.827 5.87045 11.1296C5.17305 10.4322 4.78125 9.48627 4.78125 8.5Z" fill="black"/>
</svg>
