<svg width="12" height="12" viewBox="0 0 12 12" fill="none" xmlns="http://www.w3.org/2000/svg">
<path d="M1.82812 2.24513C1.82812 1.00518 2.83331 0 4.07327 0H7.92565C9.16561 0 10.1708 1.00518 10.1708 2.24513C10.1708 3.03028 9.76777 3.72131 9.15729 4.12259C9.76777 4.52388 10.1708 5.21489 10.1708 6.00005C10.1708 7.24001 9.16561 8.2452 7.92565 8.2452H7.8769C7.2956 8.2452 6.76589 8.02427 6.36717 7.66181V9.73048C6.36717 10.987 5.33571 12 4.08537 12C2.8485 12 1.82812 10.9979 1.82812 9.75485C1.82812 8.96974 2.23112 8.27876 2.84154 7.87746C2.23112 7.47616 1.82812 6.78516 1.82812 6.00005C1.82812 5.21489 2.23116 4.52388 2.84162 4.12259C2.23116 3.72131 1.82812 3.03028 1.82812 2.24513ZM5.63175 4.49032H4.07327C3.23947 4.49032 2.56354 5.16626 2.56354 6.00005C2.56354 6.83063 3.23425 7.50455 4.06362 7.50975C4.06683 7.50973 4.07004 7.50973 4.07327 7.50973H5.63175V4.49032ZM6.36717 6.00005C6.36717 6.83384 7.04309 7.50977 7.8769 7.50977H7.92565C8.75946 7.50977 9.43537 6.83384 9.43537 6.00005C9.43537 5.16626 8.75946 4.49032 7.92565 4.49032H7.8769C7.04309 4.49032 6.36717 5.16626 6.36717 6.00005ZM4.07327 8.2452C4.07004 8.2452 4.06683 8.24517 4.06362 8.24517C3.23425 8.25035 2.56354 8.92427 2.56354 9.75485C2.56354 10.5856 3.2485 11.2646 4.08537 11.2646C4.93573 11.2646 5.63175 10.5747 5.63175 9.73048V8.2452H4.07327ZM4.07327 0.735417C3.23947 0.735417 2.56354 1.41134 2.56354 2.24513C2.56354 3.07894 3.23947 3.75485 4.07327 3.75485H5.63175V0.735417H4.07327ZM6.36717 3.75485H7.92565C8.75946 3.75485 9.43537 3.07894 9.43537 2.24513C9.43537 1.41134 8.75946 0.735417 7.92565 0.735417H6.36717V3.75485Z" fill="black"/>
</svg>
