<svg width="12" height="12" viewBox="0 0 12 12" fill="none" xmlns="http://www.w3.org/2000/svg">
<g clip-path="url(#clip0_4104_5664)">
<path d="M11.052 5.53247L6.46877 0.948091C6.34189 0.821327 6.16988 0.750122 5.99053 0.750122C5.81118 0.750122 5.63916 0.821327 5.51228 0.948091L4.55932 1.90036L5.76682 3.10786C6.40103 2.89364 7.0015 3.5009 6.78377 4.13161L7.94767 5.29551C8.74994 5.01895 9.38158 6.02208 8.779 6.62418C8.15814 7.24504 7.13346 6.55692 7.4665 5.74903L6.38017 4.66411V7.51997C6.97314 7.81387 6.90189 8.50083 6.59299 8.80903C6.44206 8.95987 6.23742 9.0446 6.02404 9.0446C5.81066 9.0446 5.60602 8.95987 5.4551 8.80903C5.0433 8.39653 5.19564 7.70958 5.71877 7.49653V4.61372C5.23127 4.41426 5.14221 3.89325 5.28189 3.55903L4.0915 2.36723L0.948066 5.51114C0.821245 5.63798 0.75 5.81001 0.75 5.98938C0.75 6.16875 0.821245 6.34078 0.948066 6.46762L5.53267 11.052C5.65951 11.1787 5.83149 11.2499 6.0108 11.2499C6.19011 11.2499 6.36209 11.1787 6.48892 11.052L11.052 6.48895C11.1788 6.3621 11.25 6.19008 11.25 6.01071C11.25 5.83134 11.1788 5.65931 11.052 5.53247Z" fill="black"/>
</g>
<defs>
<clipPath id="clip0_4104_5664">
<rect width="12" height="12" fill="white"/>
</clipPath>
</defs>
</svg>
