<svg width="12" height="12" viewBox="0 0 12 12" fill="none" xmlns="http://www.w3.org/2000/svg">
<g clip-path="url(#clip0_4104_5602)">
<path d="M8.60459 2.6763e-05C8.33209 0.00152676 8.06259 0.0670268 7.97659 0.183527C7.92159 0.266027 7.88059 0.781527 7.92159 1.04253C7.92159 1.04253 7.93759 1.21503 7.96659 1.34953C7.96344 1.37988 7.96011 1.41021 7.95659 1.44053C7.94483 1.54202 7.92865 1.64295 7.90809 1.74303C7.90309 1.77103 7.80459 1.79053 7.69559 1.81903C7.67279 1.81136 7.64978 1.80436 7.62659 1.79803C7.50959 1.76353 7.43409 1.85953 7.31759 1.92803C7.28309 1.90803 7.13209 1.83903 7.04959 1.88703C6.96709 1.93503 6.91209 1.98353 6.82959 2.01753C6.78859 1.99703 6.67859 1.99703 6.58959 2.03153C6.49979 2.05941 6.4173 2.10688 6.34809 2.17053C5.19109 2.46053 3.94159 2.98803 3.84209 3.04103C3.33359 3.30203 2.50259 3.74853 2.12509 4.05753C1.47959 4.59303 1.09509 5.21853 0.943588 5.67853C0.751088 6.24853 0.806088 6.59203 0.991588 6.37203C1.14059 6.18903 1.80759 5.64503 2.22909 5.37253L2.22809 5.37603C2.29786 5.32693 2.37142 5.28346 2.44809 5.24603L2.56459 5.18403L2.81709 5.02253C3.11809 5.29853 3.21859 5.73903 3.28559 6.33753C3.39559 7.25803 4.13759 7.68403 5.00259 7.69753C5.90259 7.71153 6.22559 7.89703 6.56209 8.35003C6.63859 8.45053 6.72109 8.50353 6.79709 8.53403C6.76296 8.59834 6.73613 8.66626 6.71709 8.73653C6.67959 8.82153 6.65459 8.92653 6.63859 9.04053C6.6304 9.0515 6.62523 9.06443 6.62359 9.07803C6.58959 9.34603 6.59609 9.97803 6.58959 10.3145C6.58259 10.651 6.57559 10.6995 6.54809 10.7475C6.52059 10.8025 6.49309 10.8365 6.45909 10.981C6.42459 11.132 6.36259 11.173 6.30109 11.2965C6.19809 11.489 6.21859 11.7015 6.32159 11.798C6.42459 11.894 6.70659 12.0385 7.09059 11.9905C7.47559 11.9425 7.53059 11.915 7.46859 11.544C7.46159 11.489 7.37259 11.2415 7.40009 11.1455C7.44109 11.0425 7.35209 10.864 7.37259 10.857C7.39309 10.85 7.42059 10.713 7.42059 10.644C7.42059 10.5755 7.41359 10.246 7.48909 10.074C7.52009 10.004 7.58559 9.84403 7.65209 9.68153C7.87309 9.32003 7.88159 9.10103 7.89209 8.97653C7.90709 8.87553 7.91509 8.74653 7.90109 8.60453C7.92859 8.56303 8.04559 8.46703 8.05909 8.28153C8.05909 8.28153 8.38109 8.11303 8.61009 7.70753C8.69009 7.98603 8.76509 8.16253 8.75309 8.34353C8.50359 8.53853 8.41109 8.68253 8.37309 8.82303C8.34909 8.81303 8.33509 8.80453 8.31809 8.80303H8.30459C8.28638 8.80561 8.26857 8.81048 8.25159 8.81753C8.15559 8.85153 8.23109 9.47653 8.33409 9.73103C8.43709 9.98503 8.49209 10.136 8.53309 10.411C8.57459 10.6855 8.43709 11.022 8.38209 11.173C8.38209 11.173 8.29259 11.441 8.49859 11.585C8.67759 11.709 9.35059 11.675 9.65259 11.675C9.95509 11.675 10.4081 11.7845 10.6966 11.7295C11.0541 11.6675 11.1086 11.4545 10.8961 11.3445C10.6831 11.2345 10.3601 11.18 9.94109 10.878C9.83109 10.802 9.68009 10.7335 9.65959 10.672C9.63909 10.61 9.63909 10.253 9.64609 9.94353C9.65259 9.63453 9.75609 9.23653 9.79009 9.02353C9.82209 8.82453 9.75209 8.82953 9.65909 8.84803C9.67509 8.77453 9.69209 8.70203 9.70759 8.62503C9.87959 8.30903 9.80409 8.01353 9.80409 8.01353C10.2141 7.49153 10.0041 6.37853 9.91409 5.98953C10.2341 6.14103 10.3941 6.08353 10.3941 6.08353C10.4451 6.05603 10.4901 6.01653 10.5311 5.97153C10.6996 5.79053 10.7861 5.51353 10.7861 5.51353V5.50003C11.1771 5.10853 11.3616 4.53203 10.9161 4.15403C10.9525 4.04806 10.9615 3.93462 10.9424 3.82423C10.9232 3.71383 10.8765 3.61006 10.8066 3.52253C10.8671 3.37651 10.8818 3.21556 10.8487 3.061C10.8157 2.90644 10.7365 2.76556 10.6216 2.65703C10.5518 2.59087 10.4688 2.54026 10.3781 2.50853C10.2781 2.36103 10.2556 2.30003 10.0921 2.33403C10.0171 2.25153 10.0031 2.19003 9.84509 2.24503C9.84509 2.24503 9.79709 2.12803 9.70759 2.10053C9.69954 2.09716 9.69116 2.09465 9.68259 2.09303C9.53159 1.98803 9.39459 1.98553 9.29659 2.01303C9.26459 1.98903 9.26609 1.95103 9.26159 1.81903C9.25759 1.71903 9.25209 1.57603 9.24609 1.44703C9.25959 1.28303 9.29709 0.960027 9.30909 0.795527C9.32309 0.610527 9.33009 0.321527 9.24759 0.198027C9.15109 0.0600268 8.87659 -0.00147324 8.60459 2.6763e-05ZM8.60209 0.170027C8.95209 0.170027 9.10309 0.280027 9.12409 0.341527C9.13059 0.355527 9.16509 0.589027 9.14409 0.740027C9.13759 0.795027 9.13059 0.994527 9.11709 1.08353C9.11009 1.17303 9.08259 1.27603 9.05509 1.42003C9.03459 1.53703 8.93859 1.66753 8.86309 1.68803C8.73259 1.72253 8.49209 1.71553 8.35459 1.68803C8.32009 1.68103 8.29259 1.66053 8.25859 1.64003C8.18309 1.51603 8.14159 1.42003 8.12809 1.26903C8.11409 1.12453 8.08659 1.06303 8.08009 0.953027C8.07309 0.788027 8.07309 0.678027 8.07309 0.678027C8.08009 0.589027 8.10759 0.369027 8.10759 0.348527C8.11409 0.287027 8.22409 0.170027 8.60209 0.170027ZM8.03559 1.52103C8.10859 1.59553 8.18609 1.67403 8.25159 1.72903C8.31359 1.78403 8.46459 1.77703 8.60159 1.77703C8.72559 1.77703 8.83559 1.79103 8.88359 1.76353C8.96059 1.72503 9.06109 1.64603 9.14509 1.56653C9.15059 1.64253 9.15609 1.71853 9.15809 1.78403C9.16309 1.93153 9.13659 2.01803 9.17009 2.06903C9.12909 2.09303 9.08309 2.12153 9.03559 2.14703C8.96009 2.18703 8.88259 2.21503 8.83409 2.20453H8.83309C8.72859 2.18703 8.36759 2.09703 8.16759 2.00103C8.08409 1.87153 8.00009 1.80203 8.00459 1.77703C8.01809 1.70853 8.02459 1.65353 8.03159 1.56453C8.03359 1.54953 8.03409 1.53553 8.03559 1.52053V1.52103ZM7.60909 1.86603L7.62659 1.86653C7.83859 1.88453 7.95159 1.94253 8.03059 2.00853L8.06859 2.02353L8.07259 2.01003C8.09609 2.02503 8.12359 2.04003 8.15359 2.05403C8.38859 2.13353 8.70559 2.20803 8.80809 2.23053C8.93159 2.25803 9.13059 2.13453 9.22709 2.07253C9.39859 1.96253 9.61859 2.05253 9.72159 2.16903C9.79009 2.24403 9.81759 2.29253 9.81759 2.31303C9.97559 2.25803 9.99609 2.33353 10.0716 2.41603C10.2641 2.32653 10.2776 2.43653 10.2916 2.48453C10.2306 2.48453 10.1426 2.49153 10.0226 2.50453L10.0166 2.49853C9.94459 2.42203 9.81559 2.35403 9.71709 2.30653C9.67359 2.29103 9.62709 2.28203 9.59109 2.25803C9.53609 2.23053 9.48109 2.18953 9.39859 2.19653C9.05509 2.23753 8.98659 2.35403 8.69109 2.28553C8.40259 2.21853 8.32259 2.15853 8.02459 2.17503L8.02509 2.18803C7.97259 2.19603 7.92509 2.20303 7.91509 2.20303C7.81209 2.20903 7.55409 2.23653 7.33859 2.15303C7.31269 2.13847 7.28579 2.12577 7.25809 2.11503L7.25559 2.11403H7.25509C7.16509 2.07903 7.06009 2.05903 6.94009 2.05803H6.92709C7.03609 2.00303 7.10509 1.92853 7.20709 1.94903C7.31709 1.96953 7.42709 2.05903 7.48909 2.12753C7.46928 2.07409 7.43902 2.02514 7.40009 1.98353C7.46409 1.93853 7.52259 1.86853 7.60909 1.86603ZM7.05909 2.13853C7.13409 2.13953 7.19909 2.15153 7.26759 2.17503C7.27659 2.17953 7.28459 2.18403 7.29709 2.18953C7.44109 2.25803 7.70209 2.27153 7.92209 2.25803C8.01755 2.25416 8.11214 2.2382 8.20359 2.21053C8.36459 2.22253 8.46059 2.26553 8.69209 2.31853C8.84709 2.35353 8.94309 2.34103 9.03959 2.31503C9.13609 2.28853 9.23259 2.25003 9.40109 2.23003C9.43256 2.22669 9.46437 2.22889 9.49509 2.23653C9.51409 2.24653 9.53259 2.25653 9.55009 2.26703C9.58109 2.29153 9.65709 2.33453 9.72159 2.36153C9.80359 2.39553 10.0166 2.54003 10.0441 2.57403C10.0491 2.58051 10.0556 2.58566 10.0631 2.58903C10.1841 2.74603 10.2666 2.96653 10.2611 3.19403C10.2311 3.42403 10.0481 3.30103 9.94809 3.25403C9.74209 3.16503 9.53609 3.10303 9.29559 3.10303C9.05559 3.10303 8.74609 3.12353 8.47809 3.19253C8.10759 3.29553 7.99759 3.28853 7.83309 3.20603C7.66809 3.11703 7.37959 2.89703 7.37959 2.89703V2.90203C7.37609 2.89853 7.37359 2.89603 7.37259 2.89703C7.35159 2.93153 7.30359 3.02053 7.27609 3.06203C7.26259 3.32303 7.10459 3.73503 6.80909 3.83803C6.77108 3.85213 6.73041 3.8576 6.69003 3.85406C6.64965 3.85051 6.61056 3.83804 6.57559 3.81753C6.48992 3.76056 6.39756 3.71438 6.30059 3.68003C6.54109 3.87203 6.66509 4.01653 6.77509 4.27053C6.86209 4.48553 6.98259 4.77903 7.27609 5.09353C7.45759 5.09153 7.63859 5.14203 7.75709 5.26653C7.82559 5.33503 7.93559 5.41103 7.92209 5.47953C7.92209 5.50003 7.88059 5.55503 7.84659 5.59653C7.81382 5.63479 7.77928 5.67149 7.74309 5.70653C7.71609 5.72653 7.61959 5.80253 7.59909 5.81653C7.57859 5.83003 7.55109 5.86403 7.53059 5.87103C7.46159 5.90553 7.38609 5.87803 7.31759 5.84353C7.24909 5.80903 7.33109 5.80253 7.25559 5.74753C7.08559 5.62753 6.98509 5.54203 7.02859 5.33153C6.56259 4.93453 5.74809 4.70153 5.57309 4.27753C5.46309 4.00253 5.44909 3.86553 5.55209 3.74853C5.85459 3.40503 5.73759 3.07553 5.96459 2.93153C6.17709 2.79403 6.35609 2.95153 6.45909 3.09653C6.39709 2.84203 6.18409 2.78003 6.18409 2.75953C6.18409 2.44353 6.48659 2.22403 6.78909 2.16903C6.89809 2.14853 6.98359 2.13753 7.05909 2.13853ZM6.13559 2.40553C6.06559 2.50353 6.02009 2.62303 6.01259 2.76603C5.90959 2.78003 5.67609 2.79353 5.55909 3.21953C5.53352 3.32608 5.49769 3.42989 5.45209 3.52953C5.40059 3.55203 3.97909 4.16653 2.83759 4.80053L2.83259 4.79703C2.67259 4.88703 2.51909 4.97853 2.37309 5.07003L2.31059 5.10853L2.31009 5.11003C1.74209 5.47153 1.29009 5.83503 0.991588 6.16603C1.19759 4.82653 2.25559 4.12603 2.75659 3.81703C3.96659 3.07253 5.07109 2.70453 6.13559 2.40553ZM10.1541 2.56703C10.2841 2.56503 10.4221 2.59703 10.5321 2.70453C10.8271 2.99303 10.7446 3.30903 10.6556 3.52853C10.7306 3.61803 10.9096 3.87203 10.7996 4.17403C10.7796 4.24303 10.6281 4.24303 10.5181 4.42153C10.7931 4.26353 10.9646 4.30503 11.0266 4.50403C11.1226 4.81303 10.9096 5.18403 10.7241 5.39003C10.7241 5.38303 10.7171 5.37603 10.7171 5.36953C10.6896 5.47253 10.6556 5.67153 10.4496 5.89153C10.3466 6.00153 10.2641 5.98753 10.1471 5.96003C10.0396 5.93303 9.98609 5.88903 9.87559 5.82203C9.85759 5.71853 9.82459 5.58103 9.82459 5.52703C9.82459 5.50503 9.82259 5.45653 9.81959 5.40553C9.83559 5.38753 9.85259 5.36853 9.87259 5.34853C9.87259 5.34853 9.96159 5.22503 10.0926 5.23203C10.2226 5.23903 10.3601 5.21153 10.3946 5.17703C10.3946 4.93703 10.1196 4.93003 10.2161 4.51753C10.2226 4.49753 10.2571 4.46253 10.3671 4.44903C10.2021 4.41453 10.1271 4.40753 10.0101 4.29803L10.0036 4.29153C10.0586 4.16503 10.1156 4.06303 10.1541 3.98903C10.2506 3.79653 10.1951 3.56303 10.1951 3.56303C10.2986 3.52853 10.3876 3.47353 10.4016 3.43953C10.5031 3.10303 10.3196 2.77853 10.0991 2.56953C10.1171 2.56803 10.1356 2.56753 10.1541 2.56703ZM7.42409 3.02953C7.42909 3.03753 7.43409 3.04603 7.44109 3.05453C7.53059 3.16453 7.72959 3.30203 7.99759 3.39103C8.12759 3.43253 8.23109 3.40503 8.34759 3.37753C8.90909 3.23853 9.49959 3.20453 10.0126 3.45503C10.041 3.63687 10.0137 3.82306 9.93409 3.98903C9.81809 4.22153 9.66759 4.52303 9.69409 5.09653C9.57109 5.11853 8.98459 5.16853 8.69809 5.11503C8.43759 5.06653 7.99009 4.85253 7.88809 4.77003C7.85823 4.63017 7.83735 4.48855 7.82559 4.34603C7.91242 4.30538 7.98976 4.24695 8.05259 4.17453C7.84659 4.20853 7.76409 4.19453 7.64009 4.12603C7.52259 4.06103 7.31909 3.85953 7.20509 3.71603C7.31959 3.57103 7.40159 3.37103 7.37259 3.10303C7.39109 3.07803 7.40759 3.05353 7.42359 3.02953H7.42409ZM5.23409 3.82853C5.18909 3.95503 5.28059 4.15553 5.34609 4.30503C5.60009 4.89453 6.38109 4.95003 6.90959 5.39503C6.9015 5.46122 6.91188 5.52837 6.93959 5.58903C6.98109 5.67153 7.12509 5.79553 7.12509 5.79553C7.09759 5.82253 7.11159 5.87753 7.11159 5.87753C7.21359 5.98603 7.36359 5.99903 7.38509 6.00053C7.16759 6.62453 6.97709 7.31353 7.15959 8.04803C7.07009 8.17003 6.97559 8.27053 6.89409 8.38203C6.80518 8.35591 6.72724 8.30149 6.67209 8.22703C6.37659 7.80103 5.94359 7.51903 5.16059 7.54003C3.98609 7.56753 3.51909 7.08653 3.43009 6.16603C3.38309 5.67903 3.25159 5.20503 2.98609 4.92653C3.74409 4.50703 4.79959 3.96853 5.13359 3.86503C5.16737 3.85413 5.20123 3.84196 5.23409 3.82853ZM6.98209 3.91853C7.17259 4.13953 7.37959 4.28203 7.57859 4.40803C7.61959 4.57953 7.63359 4.69653 7.67459 4.92303H7.65409L7.64059 5.07703C7.53967 5.04674 7.4357 5.02778 7.33059 5.02053L7.33109 5.01903C6.88459 4.49053 6.98109 4.28403 6.80209 4.00953C6.85059 3.99253 6.91459 3.96253 6.98209 3.91853ZM9.93759 4.46153C9.97559 4.49503 10.0266 4.52153 10.0991 4.53853C9.93559 4.87853 10.2641 4.99453 10.2841 5.12353C10.2126 5.16503 10.1006 5.14203 9.98259 5.13603C9.92509 5.13303 9.86809 5.16853 9.82209 5.20953L9.83809 5.02603C9.84109 4.81103 9.88309 4.62153 9.93809 4.46103L9.93759 4.46153ZM7.89459 4.97353C7.90659 4.99103 7.98359 5.03903 8.39559 5.14953C8.90859 5.28703 9.55709 5.20953 9.67059 5.19453C9.66874 5.20975 9.66505 5.22469 9.65959 5.23903C9.65959 5.41053 9.68709 5.53403 9.70759 5.64403C9.73409 5.79803 9.77259 5.91053 9.78909 6.01403L9.79309 6.01053C9.91009 6.69403 10.0736 7.57703 9.65959 8.03453C9.68009 8.13053 9.69409 8.26803 9.66659 8.42603C9.64922 8.51721 9.62396 8.60672 9.59109 8.69353C9.56839 8.75065 9.55033 8.80951 9.53709 8.86953C8.98709 8.94053 8.65959 8.89703 8.50709 8.86203C8.56859 8.67503 8.71059 8.48503 8.94509 8.49453C8.93409 8.03903 8.81309 7.88303 8.68959 7.54903C8.88709 7.10753 8.83909 6.71653 9.00009 6.12503C8.87659 6.25553 8.78009 6.72953 8.69809 7.01803C8.59509 7.43703 8.41659 7.84203 7.93559 8.16503C7.93559 8.27503 7.90109 8.35703 7.86009 8.41203C7.77059 8.54253 7.65409 8.58403 7.61309 8.79703C7.66809 8.72803 7.74309 8.66653 7.74309 8.68703C7.74131 8.7693 7.73714 8.8515 7.73059 8.93353L7.73659 8.93403C7.65409 9.45603 7.47559 9.69653 7.36559 9.99153C7.29009 10.2045 7.31759 10.6715 7.29009 10.6785C7.09759 10.72 6.80259 10.6445 6.72009 10.6035C6.80109 10.0335 6.72959 9.46453 6.93809 8.80353L6.93059 8.80053C7.01059 8.52353 7.16959 8.36153 7.40009 8.06853C7.31959 7.80853 7.13409 7.24853 7.53309 5.97753C7.54959 5.97053 7.56659 5.96253 7.58559 5.95303L7.68859 5.88453C7.70859 5.87053 7.73659 5.85003 7.75709 5.83653C7.79159 5.81553 7.94259 5.65103 7.96309 5.63053C8.01109 5.58203 8.04559 5.56853 8.05909 5.51353C8.08659 5.41053 7.93559 5.30753 7.87409 5.23853C7.86509 5.22903 7.85909 5.22153 7.85259 5.21353C7.85909 5.19403 7.86609 5.17503 7.87359 5.15653C7.87859 5.09403 7.88759 5.02703 7.89459 4.97353ZM8.33609 8.94453C8.36109 8.94553 8.42309 9.00553 8.71159 9.02353C9.04159 9.04353 9.48109 8.98203 9.59759 8.95453C9.71459 8.92703 9.64609 9.00953 9.63209 9.09203L9.61909 9.17653C9.41959 9.24353 9.11509 9.27053 8.91109 9.27753C8.71459 9.28403 8.48809 9.27153 8.33059 9.22253C8.30659 9.09253 8.29909 8.98753 8.32709 8.94753C8.32831 8.94644 8.32973 8.94562 8.33128 8.9451C8.33283 8.94458 8.33446 8.94439 8.33609 8.94453ZM9.58909 9.36753C9.57909 9.43503 9.57159 9.47903 9.56009 9.55353C9.36609 9.61353 9.11609 9.61453 8.92509 9.62103C8.75564 9.62885 8.58585 9.61711 8.41909 9.58603C8.41309 9.56802 8.40759 9.54984 8.40259 9.53153C8.39127 9.48965 8.38044 9.44765 8.37009 9.40553C8.45959 9.42253 8.63509 9.44503 8.94509 9.44903C9.1627 9.45588 9.38004 9.42838 9.58909 9.36753ZM9.53609 9.71003C9.50159 9.93003 9.50859 10.603 9.52909 10.7885C9.53609 10.8435 10.0031 11.0495 10.1676 11.1735C10.2211 11.216 10.2971 11.252 10.3786 11.2845C10.3996 11.3055 10.4366 11.337 10.4771 11.386C10.5581 11.4925 10.5031 11.604 10.4096 11.649C10.2776 11.6455 10.1256 11.623 9.87259 11.585C9.52509 11.533 9.30809 11.5345 9.00759 11.532V11.5305C8.93159 11.393 8.97959 11.1665 8.97959 11.1665C8.84027 11.1624 8.703 11.1319 8.57509 11.0765L8.58109 11.0635C8.69809 10.8235 8.69109 10.768 8.65659 10.356C8.63309 10.067 8.55859 9.91453 8.48909 9.75853C8.57359 9.76653 8.69359 9.77603 8.91759 9.77903C9.12594 9.78436 9.33404 9.76114 9.53609 9.71003ZM6.88309 10.752C7.00459 10.752 7.18309 10.768 7.22109 10.802V10.809C7.22809 10.8915 7.30359 11.0085 7.27609 11.07C7.26259 11.1045 7.22809 11.0495 7.18009 11.036C7.20059 11.166 7.25559 11.4065 7.33809 11.592C7.39309 11.716 7.35859 11.805 7.17309 11.8395C7.00809 11.8465 6.79559 11.8395 6.61709 11.798C6.41109 11.695 6.34209 11.64 6.38359 11.448C6.41759 11.3105 6.63059 11.153 6.81609 11.029C6.71309 11.036 6.60309 11.1115 6.61709 11.022C6.64459 10.8435 6.72009 10.857 6.76809 10.768C6.75809 10.758 6.81009 10.752 6.88309 10.752Z" fill="black"/>
</g>
<defs>
<clipPath id="clip0_4104_5602">
<rect width="12" height="12" fill="white"/>
</clipPath>
</defs>
</svg>
