<svg width="11" height="11" viewBox="0 0 11 11" fill="none" xmlns="http://www.w3.org/2000/svg">
<path d="M5.2541 2.55879C3.76348 2.55879 2.56113 3.76113 2.56113 5.25176C2.56113 6.74238 3.76348 7.94473 5.2541 7.94473C6.74473 7.94473 7.94707 6.74238 7.94707 5.25176C7.94707 3.76113 6.74473 2.55879 5.2541 2.55879ZM5.2541 7.00254C4.29082 7.00254 3.50332 6.21738 3.50332 5.25176C3.50332 4.28613 4.28848 3.50098 5.2541 3.50098C6.21973 3.50098 7.00488 4.28613 7.00488 5.25176C7.00488 6.21738 6.21738 7.00254 5.2541 7.00254ZM8.68535 2.44863C8.68535 2.79785 8.4041 3.07676 8.05723 3.07676C7.70801 3.07676 7.4291 2.79551 7.4291 2.44863C7.4291 2.10176 7.71035 1.82051 8.05723 1.82051C8.4041 1.82051 8.68535 2.10176 8.68535 2.44863ZM10.4689 3.08613C10.4291 2.24473 10.2369 1.49941 9.62051 0.885352C9.00645 0.271289 8.26113 0.0791016 7.41973 0.0369141C6.55254 -0.0123047 3.95332 -0.0123047 3.08613 0.0369141C2.24707 0.0767578 1.50176 0.268945 0.885352 0.883008C0.268945 1.49707 0.0791016 2.24238 0.0369141 3.08379C-0.0123047 3.95098 -0.0123047 6.55019 0.0369141 7.41738C0.0767578 8.25879 0.268945 9.0041 0.885352 9.61816C1.50176 10.2322 2.24473 10.4244 3.08613 10.4666C3.95332 10.5158 6.55254 10.5158 7.41973 10.4666C8.26113 10.4268 9.00645 10.2346 9.62051 9.61816C10.2346 9.0041 10.4268 8.25879 10.4689 7.41738C10.5182 6.55019 10.5182 3.95332 10.4689 3.08613ZM9.34863 8.34785C9.16582 8.80723 8.81191 9.16113 8.3502 9.34629C7.65879 9.62051 6.01816 9.55723 5.2541 9.55723C4.49004 9.55723 2.84707 9.61816 2.15801 9.34629C1.69863 9.16348 1.34473 8.80957 1.15957 8.34785C0.885352 7.65645 0.948633 6.01582 0.948633 5.25176C0.948633 4.4877 0.887695 2.84473 1.15957 2.15566C1.34238 1.69629 1.69629 1.34238 2.15801 1.15723C2.84941 0.883008 4.49004 0.946289 5.2541 0.946289C6.01816 0.946289 7.66113 0.885351 8.3502 1.15723C8.80957 1.34004 9.16348 1.69395 9.34863 2.15566C9.62285 2.84707 9.55957 4.4877 9.55957 5.25176C9.55957 6.01582 9.62285 7.65879 9.34863 8.34785Z" fill="black"/>
</svg>
