<svg width="12" height="12" viewBox="0 0 12 12" fill="none" xmlns="http://www.w3.org/2000/svg">
<g clip-path="url(#clip0_4104_5620)">
<path d="M0 0H12V12H0V0ZM11.017 9.138C10.9295 8.5905 10.573 8.1305 9.5155 7.7015C9.1475 7.529 8.7385 7.409 8.617 7.1315C8.5715 6.9665 8.5645 6.8765 8.594 6.779C8.669 6.456 9.0515 6.359 9.3515 6.449C9.5465 6.509 9.7265 6.659 9.8395 6.899C10.3565 6.561 10.3565 6.561 10.717 6.3365C10.582 6.1265 10.515 6.036 10.424 5.9465C10.109 5.594 9.6895 5.414 9.007 5.4295L8.6545 5.474C8.3165 5.5565 7.9945 5.7365 7.7995 5.9765C7.2295 6.622 7.394 7.747 8.084 8.212C8.7665 8.722 9.7645 8.834 9.892 9.3145C10.012 9.8995 9.457 10.087 8.909 10.0195C8.5035 9.9295 8.279 9.7265 8.0315 9.3515L7.1165 9.877C7.2215 10.117 7.3415 10.2215 7.5215 10.4315C8.3915 11.3095 10.5665 11.2645 10.957 9.9295C10.9715 9.8845 11.077 9.577 10.994 9.1045L11.017 9.138ZM6.5255 5.5155H5.4015C5.4015 6.4845 5.397 7.4475 5.397 8.418C5.397 9.034 5.4285 9.5995 5.328 9.7735C5.163 10.118 4.738 10.074 4.545 10.0135C4.347 9.9155 4.2465 9.7805 4.13 9.586C4.0985 9.5335 4.075 9.488 4.0665 9.488L3.154 10.0505C3.3065 10.3655 3.529 10.6365 3.816 10.809C4.2435 11.064 4.818 11.1465 5.4195 11.0115C5.811 10.8985 6.1485 10.666 6.325 10.306C6.58 9.841 6.526 9.271 6.5235 8.633C6.5295 7.606 6.5235 6.5785 6.5235 5.5435L6.5255 5.5155Z" fill="black"/>
</g>
<defs>
<clipPath id="clip0_4104_5620">
<rect width="12" height="12" rx="1" fill="white"/>
</clipPath>
</defs>
</svg>
