<svg width="12" height="12" viewBox="0 0 12 12" fill="none" xmlns="http://www.w3.org/2000/svg">
<g clip-path="url(#clip0_4104_5617)">
<path d="M8.00959 7.33359C8.23928 7.17656 8.55803 7.04062 8.55803 7.04062C8.55803 7.04062 7.651 7.20469 6.74866 7.27969C5.64475 7.37109 4.45881 7.38984 3.8635 7.31016C2.45491 7.12266 4.63694 6.60469 4.63694 6.60469C4.63694 6.60469 3.79084 6.54844 2.74788 7.05C1.51741 7.64531 5.79475 7.91719 8.00959 7.33359ZM6.00803 6.58125C5.56272 5.58047 4.06038 4.70156 6.00803 3.16406C8.43756 1.24687 7.19163 0 7.19163 0C7.69553 1.98047 5.41975 2.58047 4.59709 3.81094C4.03694 4.65234 4.87131 5.55469 6.00803 6.58125ZM8.69397 2.45156C8.69631 2.45156 4.58772 3.47813 6.54944 5.7375C7.12834 6.40313 6.39709 7.00312 6.39709 7.00312C6.39709 7.00312 7.86663 6.24375 7.19163 5.29453C6.56116 4.40859 6.07834 3.96797 8.69397 2.45156ZM8.551 8.79141C8.53819 8.81374 8.52242 8.83424 8.50413 8.85234C11.5112 8.0625 10.4049 6.06562 8.96819 6.57187C8.89059 6.60039 8.82354 6.6519 8.776 6.71953C8.8599 6.68917 8.94612 6.66565 9.03381 6.64922C9.76038 6.49688 10.8033 7.62188 8.551 8.79141ZM9.65631 10.2516C9.65631 10.2516 9.99616 10.5305 9.28366 10.7484C7.92663 11.1586 3.63991 11.2828 2.44928 10.7648C2.02038 10.5797 2.82428 10.3195 3.07741 10.2656C3.33991 10.2094 3.49225 10.2188 3.49225 10.2188C3.01647 9.88359 0.414907 10.8773 2.17038 11.1609C6.95725 11.9391 10.8985 10.8117 9.65631 10.2516ZM4.41663 9.28125C2.57209 9.79688 5.53928 10.8609 7.88772 9.85547C7.65868 9.76649 7.43758 9.65829 7.22678 9.53203C6.17913 9.73125 5.69397 9.74531 4.74241 9.6375C3.95725 9.54844 4.41663 9.28125 4.41663 9.28125ZM8.63069 11.5594C6.78616 11.9063 4.51038 11.8664 3.16272 11.6437C3.16272 11.6414 3.43928 11.8711 4.85959 11.9625C7.02053 12.1008 10.3393 11.8852 10.4166 10.8633C10.4166 10.8633 10.2666 11.25 8.63069 11.5594ZM7.60881 8.27344C6.22131 8.54062 5.41741 8.53359 4.40256 8.42813C3.61741 8.34609 4.13069 7.96641 4.13069 7.96641C2.09631 8.64141 5.26037 9.40547 8.10334 8.57344C7.9196 8.50856 7.75124 8.40642 7.60881 8.27344Z" fill="black"/>
</g>
<defs>
<clipPath id="clip0_4104_5617">
<rect width="12" height="12" fill="white"/>
</clipPath>
</defs>
</svg>
