<svg width="800" height="800" viewBox="0 0 800 800" fill="none" xmlns="http://www.w3.org/2000/svg">
<path d="M677.226 394.65C677.226 377.371 670.361 360.8 658.143 348.582C645.925 336.364 629.354 329.5 612.075 329.5C609.788 329.497 607.501 329.614 605.225 329.85L694.725 65.8999H314.4L403.775 329.625C402.475 329.625 401.15 329.5 399.825 329.5C384.268 329.482 369.217 335.032 357.396 345.147C345.574 355.261 337.763 369.272 335.374 384.645C332.985 400.019 336.176 415.74 344.37 428.964C352.564 442.189 365.221 452.045 380.05 456.75C366.192 480.611 348.936 502.33 328.825 521.225C302.647 546.25 271.546 565.551 237.5 577.9C218.426 568.86 203.507 552.898 195.776 533.256C188.045 513.615 188.08 491.766 195.875 472.15C197.8 467.65 199.75 463.1 201.6 458.55C216.127 455.129 229.039 446.826 238.18 435.029C247.32 423.232 252.135 408.656 251.821 393.736C251.506 378.815 246.08 364.455 236.45 353.054C226.82 341.653 213.569 333.903 198.911 331.097C184.254 328.292 169.077 330.602 155.918 337.641C142.759 344.68 132.414 356.023 126.612 369.772C120.81 383.522 119.903 398.846 124.041 413.185C128.18 427.523 137.114 440.007 149.35 448.55C128.554 486.257 112.683 526.477 102.125 568.225C93.2755 621.6 102.125 678.225 148.25 710.25C255.75 784.775 372.475 664.05 495.525 633.725C540.125 622.725 589.076 624.5 628.351 601.75C642.54 593.668 654.776 582.563 664.191 569.22C673.605 555.878 679.968 540.627 682.825 524.55C685.439 509.23 684.946 493.541 681.378 478.416C677.809 463.29 671.236 449.036 662.05 436.5C671.851 424.787 677.215 409.997 677.2 394.725L677.226 394.65ZM465 395V394.775C465.019 383.563 462.137 372.537 456.635 362.769C451.133 353 443.198 344.82 433.6 339.025L504.7 195L575.95 340.35C567.012 346.29 559.683 354.35 554.619 363.812C549.554 373.274 546.911 383.843 546.926 394.575C546.926 395.05 546.926 395.525 546.926 396L465 395Z" fill="black"/>
<path d="M693.149 394.65C693.124 375.76 686.511 357.469 674.45 342.93C662.389 328.391 645.635 318.514 627.074 315L716.924 50H292.224L382.224 315.525C366.512 319.037 352.202 327.15 341.121 338.829C330.039 350.508 322.689 365.224 320.006 381.099C317.324 396.974 319.431 413.288 326.06 427.959C332.689 442.631 343.538 454.996 357.224 463.475C345.918 480.271 332.77 495.751 318.024 509.625C295.198 531.463 268.375 548.695 239.024 560.375C225.25 552.379 214.808 539.698 209.604 524.646C204.4 509.593 204.78 493.171 210.674 478.375L211.674 476.05L213.524 471.675C230.186 465.898 244.512 454.849 254.333 440.202C264.153 425.554 268.933 408.105 267.948 390.497C266.964 372.89 260.269 356.082 248.877 342.621C237.485 329.159 222.016 319.776 204.814 315.892C187.612 312.009 169.613 313.837 153.542 321.099C137.472 328.361 124.206 340.662 115.752 356.139C107.299 371.616 104.119 389.426 106.694 406.872C109.27 424.319 117.46 440.45 130.024 452.825C127.324 458.6 124.474 464.45 121.549 470.475C105.34 500.278 93.5499 532.279 86.5491 565.475C74.9241 635.475 93.6741 691.55 139.324 723.175C163.83 740.699 193.222 750.083 223.349 750C276.649 750 330.574 723.225 383.349 697.025C420.222 676.971 459.125 660.898 499.399 649.075C513.824 645.525 528.674 643.375 544.399 641.1C576.435 638.54 607.674 629.814 636.399 615.4C652.598 606.147 666.564 593.445 677.309 578.195C688.053 562.944 695.313 545.518 698.574 527.15C703.886 495.944 697.751 463.869 681.299 436.825C689.082 424.126 693.192 409.519 693.174 394.625L693.149 394.65ZM661.324 394.65C661.324 404.391 658.436 413.913 653.024 422.012C647.612 430.111 639.92 436.423 630.921 440.151C621.922 443.879 612.019 444.854 602.466 442.954C592.912 441.053 584.137 436.363 577.249 429.475C570.361 422.587 565.671 413.812 563.77 404.258C561.87 394.705 562.845 384.802 566.573 375.803C570.301 366.804 576.613 359.112 584.712 353.7C592.811 348.288 602.333 345.4 612.074 345.4C625.132 345.413 637.651 350.606 646.884 359.84C656.118 369.073 661.311 381.592 661.324 394.65ZM672.499 81.825L593.149 315.825C589.751 316.647 586.411 317.691 583.149 318.95L504.774 158.95L426.149 318C422.726 316.814 419.226 315.862 415.674 315.15L336.599 81.825H672.499ZM399.824 345.4C409.565 345.4 419.087 348.288 427.186 353.7C435.285 359.112 441.598 366.804 445.325 375.803C449.053 384.802 450.028 394.705 448.128 404.258C446.227 413.812 441.537 422.587 434.649 429.475C427.761 436.363 418.986 441.053 409.432 442.954C399.879 444.854 389.976 443.879 380.977 440.151C371.978 436.423 364.286 430.111 358.874 422.012C353.463 413.913 350.574 404.391 350.574 394.65C350.587 381.592 355.78 369.073 365.014 359.84C374.247 350.606 386.766 345.413 399.824 345.4ZM186.774 345.875C196.519 345.88 206.044 348.776 214.142 354.196C222.241 359.616 228.549 367.317 232.269 376.324C235.989 385.331 236.954 395.239 235.04 404.795C233.127 414.35 228.422 423.123 221.521 430.003C214.62 436.883 205.832 441.562 196.271 443.446C186.71 445.33 176.805 444.335 167.809 440.588C158.814 436.84 151.132 430.508 145.737 422.393C140.341 414.278 137.474 404.745 137.499 395C137.512 381.942 142.705 369.423 151.939 360.19C161.172 350.956 173.691 345.763 186.749 345.75L186.774 345.875ZM667.199 521.725C664.728 535.506 659.257 548.575 651.174 560.006C643.091 571.437 632.593 580.952 620.424 587.875C595.176 600.134 567.837 607.505 539.849 609.6C524.049 611.875 507.724 614.225 491.749 618.175C449.222 630.489 408.151 647.362 369.249 668.5C290.149 707.775 221.749 741.7 157.449 697.075C110.274 664.375 112.449 603.875 117.949 570.725C124.421 540.557 135.216 511.482 149.999 484.4C152.299 479.675 154.549 475.025 156.749 470.425C163.464 473.11 170.511 474.876 177.699 475.675C171.336 498.149 173.114 522.149 182.719 543.44C192.324 564.731 209.14 581.947 230.199 592.05L236.324 595.2L242.799 592.9C278.916 579.864 311.913 559.427 339.674 532.9C358.012 515.65 374.12 496.173 387.624 474.925C404.902 477.553 422.567 474.524 437.982 466.29C453.398 458.056 465.738 445.058 473.161 429.236C480.584 413.414 482.693 395.616 479.172 378.498C475.651 361.379 466.689 345.858 453.624 334.25L504.574 231.225L556.049 336.225C541.403 350.34 532.604 369.448 531.4 389.753C530.195 410.057 536.674 430.072 549.549 445.819C562.424 461.566 580.752 471.893 600.891 474.747C621.03 477.601 641.506 472.774 658.249 461.225C667.533 479.963 670.64 501.161 667.124 521.775L667.199 521.725Z" fill="white"/>
</svg>
