<svg width="15" height="15" viewBox="0 0 15 15" fill="none" xmlns="http://www.w3.org/2000/svg">
<path d="M8.2835 0.000335742C8.17028 0.00409341 8.05892 0.0302159 7.95583 0.0771984C7.85275 0.124181 7.75998 0.191095 7.68287 0.274086L4.30412 3.89159L1.89537 6.47034C1.54456 6.84387 1.28582 7.29416 1.13975 7.78534C1.10845 7.89086 1.08237 7.99786 1.06162 8.10596C0.967977 8.59508 0.981195 9.09867 1.10037 9.58221C1.15335 9.80035 1.22637 10.0131 1.3185 10.2178C1.50957 10.6431 1.77906 11.0286 2.11287 11.3541L4.786 13.9747L4.81037 13.9985C6.21537 15.3516 8.46787 15.3316 9.84975 13.9522L11.3472 12.4572C11.6847 12.1197 11.6847 11.5735 11.3491 11.2353C11.2692 11.155 11.1743 11.0913 11.0698 11.0477C10.9652 11.0041 10.8531 10.9816 10.7398 10.9815C10.6266 10.9813 10.5144 11.0034 10.4097 11.0467C10.305 11.0899 10.2099 11.1534 10.1297 11.2335L8.63225 12.7285C8.2831 13.0731 7.81354 13.2682 7.323 13.2727C6.83245 13.2771 6.35944 13.0904 6.00412 12.7522L5.99162 12.7403L3.31912 10.1197C2.91162 9.71971 2.71162 9.20159 2.72662 8.70534C2.7296 8.59529 2.74342 8.4858 2.76787 8.37846C2.83069 8.10619 2.96413 7.85527 3.15475 7.65096L5.56287 5.07159C6.22412 4.36284 7.56537 4.27784 8.33162 4.89784L10.5197 6.66721C10.8904 6.96721 11.4329 6.90909 11.7322 6.53784C11.8758 6.35949 11.9427 6.13154 11.9185 5.90392C11.8942 5.67629 11.7807 5.46756 11.6029 5.32346L9.41537 3.55409C8.91537 3.14971 8.31162 2.90096 7.68162 2.80284L8.941 1.45409C9.05709 1.32926 9.13371 1.17292 9.16124 1.00469C9.18877 0.836468 9.16598 0.663859 9.09573 0.508542C9.02549 0.353225 8.91091 0.222126 8.76641 0.131709C8.6219 0.041292 8.4539 -0.00441241 8.2835 0.000335742ZM6.49225 8.00971C6.37888 8.00971 6.26662 8.03206 6.1619 8.07548C6.05717 8.11891 5.96203 8.18255 5.88193 8.26277C5.80182 8.343 5.73832 8.43822 5.69504 8.54301C5.65177 8.6478 5.62959 8.76009 5.62975 8.87346C5.62959 8.98683 5.65177 9.09912 5.69504 9.20391C5.73832 9.3087 5.80182 9.40393 5.88193 9.48415C5.96203 9.56437 6.05717 9.62801 6.1619 9.67144C6.26662 9.71486 6.37888 9.73721 6.49225 9.73721H12.8504C12.9637 9.73721 13.076 9.71486 13.1807 9.67144C13.2855 9.62801 13.3806 9.56437 13.4607 9.48415C13.5408 9.40393 13.6043 9.3087 13.6476 9.20391C13.6909 9.09912 13.713 8.98683 13.7129 8.87346C13.713 8.76009 13.6909 8.6478 13.6476 8.54301C13.6043 8.43822 13.5408 8.343 13.4607 8.26277C13.3806 8.18255 13.2855 8.11891 13.1807 8.07548C13.076 8.03206 12.9637 8.00971 12.8504 8.00971H6.49225Z" fill="#454545"/>
</svg>
