<svg width="12" height="12" viewBox="0 0 12 12" fill="none" xmlns="http://www.w3.org/2000/svg">
<g clip-path="url(#clip0_4104_5652)">
<path d="M5.92483 2.88985C5.94827 2.90157 5.96702 2.92969 5.99514 2.92969C6.02093 2.92969 6.06077 2.92032 6.06311 2.89454C6.0678 2.86173 6.01858 2.84063 5.98811 2.82657C5.94827 2.81016 5.89671 2.80313 5.85921 2.82423C5.84983 2.82891 5.84046 2.84063 5.84514 2.85001C5.85218 2.88048 5.89905 2.87579 5.92483 2.88985ZM5.41155 2.92969C5.43968 2.92969 5.45843 2.90157 5.48186 2.88985C5.50764 2.87579 5.55452 2.88048 5.56389 2.85235C5.56858 2.84298 5.55921 2.83126 5.54983 2.82657C5.51233 2.80548 5.46077 2.81251 5.42093 2.82891C5.39046 2.84298 5.34124 2.86407 5.34593 2.89688C5.34827 2.92032 5.38811 2.93204 5.41155 2.92969ZM10.5936 9.46407C10.5092 9.37032 10.4694 9.19219 10.4248 9.00235C10.3826 8.81251 10.3334 8.6086 10.1787 8.47735C10.1483 8.45157 10.1178 8.42813 10.085 8.40938C10.0545 8.39063 10.0217 8.37422 9.98889 8.36251C10.2045 7.72266 10.1201 7.08516 9.90218 6.5086C9.63499 5.80313 9.16858 5.18673 8.81233 4.76485C8.41155 4.26094 8.02249 3.78282 8.02952 3.07735C8.04124 2.00157 8.14905 0.00235053 6.25296 6.77753e-06C3.85296 -0.00468072 4.45296 2.42344 4.42718 3.16876C4.38733 3.71719 4.27718 4.14844 3.89983 4.68516C3.45686 5.21251 2.83343 6.06329 2.53811 6.95157C2.39749 7.3711 2.33186 7.79766 2.3928 8.20079C2.24046 8.33673 2.12561 8.54532 2.00374 8.67423C1.9053 8.77501 1.76233 8.81251 1.6053 8.86876C1.44827 8.92501 1.27718 9.00938 1.17171 9.2086C1.12249 9.30001 1.10608 9.39844 1.10608 9.49922C1.10608 9.59063 1.12014 9.68438 1.13421 9.77579C1.16233 9.96563 1.1928 10.1438 1.15296 10.2633C1.03108 10.6008 1.01468 10.8352 1.10139 11.0063C1.19046 11.1774 1.36858 11.2524 1.57249 11.2945C1.97796 11.3789 2.52874 11.3578 2.96233 11.5875C3.42639 11.8313 3.89749 11.918 4.27249 11.8313C4.54436 11.7703 4.76702 11.6063 4.87952 11.3578C5.17249 11.3555 5.49593 11.2313 6.01155 11.2031C6.36077 11.175 6.79905 11.3274 7.30296 11.2992C7.31702 11.3531 7.33577 11.407 7.36155 11.4563V11.4586C7.55608 11.85 7.91936 12.0281 8.30608 11.9977C8.69514 11.9672 9.1053 11.7399 9.43811 11.3438C9.75686 10.9594 10.2819 10.8 10.6311 10.5891C10.8045 10.4836 10.9451 10.3524 10.9569 10.1602C10.9662 9.96798 10.8537 9.75469 10.5936 9.46407ZM5.9928 2.0461C6.22249 1.52579 6.79436 1.53516 7.02405 2.03673C7.17639 2.36954 7.10843 2.76094 6.92327 2.9836C6.88577 2.96485 6.78499 2.92266 6.62796 2.86876C6.65374 2.84063 6.70061 2.80548 6.71936 2.76094C6.83186 2.48438 6.71468 2.12813 6.50608 2.1211C6.33499 2.10938 6.1803 2.37423 6.22952 2.66016C6.13343 2.61329 6.00921 2.57813 5.92483 2.55704C5.90139 2.39532 5.9178 2.21485 5.9928 2.0461ZM5.03889 1.77657C5.27561 1.77657 5.52639 2.10938 5.48655 2.56173C5.40452 2.58516 5.32014 2.62032 5.24749 2.66954C5.27561 2.46094 5.17014 2.19844 5.02249 2.21016C4.82561 2.22657 4.7928 2.70704 4.9803 2.86876C5.00374 2.88751 5.02483 2.86407 4.84202 2.99766C4.47639 2.65548 4.59593 1.77657 5.03889 1.77657ZM4.72014 3.19923C4.86546 3.09141 5.03889 2.96485 5.05061 2.95313C5.16077 2.85001 5.36702 2.62032 5.70452 2.62032C5.87093 2.62032 6.07014 2.67423 6.31155 2.82891C6.45921 2.92501 6.57639 2.93204 6.84124 3.04688C7.03811 3.12891 7.16233 3.27423 7.08733 3.47344C7.02639 3.63985 6.82952 3.81094 6.5553 3.89766C6.29514 3.98204 6.09124 4.27266 5.65999 4.24688C5.56858 4.24219 5.49593 4.22344 5.43499 4.19766C5.24749 4.11563 5.14905 3.95391 4.96624 3.8461C4.76468 3.7336 4.65686 3.60235 4.62171 3.48751C4.58889 3.37266 4.62171 3.27657 4.72014 3.19923ZM4.79749 11.0274C4.73421 11.85 3.76858 11.8336 3.03264 11.4492C2.33186 11.0789 1.42483 11.2969 1.23968 10.9359C1.18343 10.8258 1.18343 10.6383 1.30061 10.3172V10.3125C1.35686 10.1344 1.31468 9.93751 1.28655 9.75235C1.25843 9.56954 1.24436 9.40079 1.30764 9.2836C1.38968 9.12657 1.50686 9.07032 1.65452 9.01876C1.89593 8.93204 1.93108 8.93907 2.11389 8.78673C2.2428 8.65313 2.33655 8.48438 2.44905 8.36485C2.56858 8.23594 2.68343 8.17501 2.86389 8.20313C3.05374 8.23126 3.2178 8.36251 3.37718 8.57813L3.83655 9.41251C4.05921 9.87891 4.84671 10.5469 4.79749 11.0274ZM4.76468 10.4203C4.66858 10.2656 4.53968 10.1016 4.42718 9.96094C4.59358 9.96094 4.75999 9.90938 4.81858 9.75235C4.87249 9.60704 4.81858 9.40313 4.64514 9.16876C4.32874 8.74219 3.74749 8.40704 3.74749 8.40704C3.43108 8.21016 3.25296 7.96876 3.17093 7.70626C3.08889 7.44376 3.10061 7.16016 3.16389 6.88126C3.28577 6.34454 3.59983 5.82188 3.80139 5.49376C3.8553 5.45391 3.82014 5.56876 3.59749 5.98126C3.39827 6.3586 3.02561 7.23048 3.53655 7.91251C3.55061 7.42735 3.66546 6.93282 3.85999 6.4711C4.14124 5.82891 4.73421 4.71563 4.78108 3.82969C4.80686 3.84844 4.88889 3.90469 4.92639 3.92579C5.03421 3.98907 5.11624 4.08282 5.22171 4.16719C5.51233 4.40157 5.88968 4.38282 6.21546 4.19532C6.36077 4.11329 6.47796 4.01954 6.58811 3.98438C6.82014 3.91173 7.0053 3.78282 7.11077 3.63282C7.29124 4.34532 7.71311 5.37423 7.98264 5.87579C8.12561 6.14298 8.41155 6.70782 8.53577 7.38985C8.61311 7.38751 8.69983 7.39923 8.79124 7.42266C9.11468 6.58594 8.51702 5.6836 8.24514 5.43282C8.13499 5.32501 8.1303 5.27813 8.18421 5.28048C8.47952 5.54298 8.86858 6.07032 9.00921 6.66329C9.07483 6.93516 9.08655 7.21876 9.01858 7.50001C9.40296 7.65938 9.85999 7.91954 9.73811 8.31563C9.68655 8.31329 9.66311 8.31563 9.63967 8.31563C9.71467 8.07891 9.54827 7.90313 9.1053 7.70391C8.64593 7.50235 8.26155 7.50235 8.20764 7.99688C7.92405 8.09532 7.77874 8.34141 7.70608 8.63673C7.64046 8.89923 7.62171 9.21563 7.60296 9.57188C7.59124 9.75235 7.51858 9.99376 7.44358 10.2516C6.69124 10.7883 5.64593 11.0227 4.76468 10.4203ZM10.7975 10.1508C10.7764 10.5445 9.83186 10.6172 9.31624 11.2406C9.00686 11.6086 8.62718 11.8125 8.29436 11.8383C7.96155 11.8641 7.67327 11.7258 7.50452 11.3859C7.39436 11.1258 7.44827 10.8445 7.5303 10.5352C7.61702 10.2024 7.74593 9.86016 7.76233 9.5836C7.78108 9.22735 7.80218 8.91563 7.86077 8.67657C7.92171 8.43516 8.01546 8.27344 8.18186 8.18204C8.18889 8.17735 8.19827 8.17501 8.2053 8.17032C8.22405 8.47969 8.37639 8.79376 8.64593 8.86173C8.94124 8.93907 9.36546 8.68594 9.54592 8.47969C9.75686 8.47266 9.91389 8.4586 10.0756 8.59923C10.3076 8.79844 10.242 9.30938 10.4764 9.57423C10.7248 9.8461 10.8045 10.0313 10.7975 10.1508ZM4.81155 3.48516C4.85843 3.52969 4.92171 3.59063 4.99905 3.65157C5.15374 3.77344 5.36936 3.90001 5.63889 3.90001C5.91077 3.90001 6.16624 3.76173 6.38421 3.64688C6.49905 3.58594 6.63968 3.48282 6.73108 3.40313C6.82249 3.32344 6.86936 3.25548 6.80374 3.24844C6.73811 3.24141 6.7428 3.30938 6.66311 3.36798C6.55999 3.44298 6.43577 3.54141 6.33733 3.59766C6.16389 3.6961 5.8803 3.83673 5.63655 3.83673C5.3928 3.83673 5.19827 3.72423 5.05296 3.60938C4.9803 3.55079 4.91936 3.49219 4.87249 3.44766C4.83733 3.41485 4.82796 3.33985 4.77171 3.33282C4.73889 3.33048 4.72952 3.41954 4.81155 3.48516Z" fill="black"/>
</g>
<defs>
<clipPath id="clip0_4104_5652">
<rect width="12" height="12" fill="white"/>
</clipPath>
</defs>
</svg>
