<svg width="12" height="13" viewBox="0 0 12 13" fill="none" xmlns="http://www.w3.org/2000/svg">
<path d="M3.38438 3C1.51524 3 0 4.52571 0 6.40759C0 8.28947 1.51536 9.81518 3.38438 9.81518C5.25339 9.81518 6.76875 8.28958 6.76875 6.40759C6.76875 4.52559 5.25358 3 3.38438 3ZM8.78906 3.19961C7.85447 3.19961 7.09697 4.63622 7.09697 6.40764C7.09697 8.17907 7.85458 9.61577 8.78918 9.61577C9.72377 9.61577 10.4814 8.17916 10.4814 6.40764H10.4813C10.4813 4.63571 9.72375 3.19961 8.7891 3.19961H8.78906ZM11.4048 3.53376C11.0762 3.53376 10.8098 4.82053 10.8098 6.40764C10.8098 7.99476 11.076 9.28153 11.4048 9.28153C11.7336 9.28153 12 7.99442 12 6.40759C12 4.82042 11.7335 3.53376 11.4048 3.53376H11.4048Z" fill="#454545"/>
</svg>
