<svg width="12" height="12" viewBox="0 0 12 12" fill="none" xmlns="http://www.w3.org/2000/svg">
<path d="M8.59647 4.7775C7.96447 1.9875 6.47047 1.0705 6.30997 0.72C6.16997 0.523 6.04497 0.243 5.94247 0C5.92447 0.2475 5.91497 0.3425 5.68097 0.592C5.31947 0.875 3.46197 2.433 3.31097 5.602C3.16997 8.558 5.44597 10.3195 5.75497 10.544L5.78997 10.569C5.85432 11.0449 5.90933 11.522 5.95497 12H6.19547C6.25247 11.484 6.33747 10.972 6.45047 10.465C6.65897 10.317 6.75247 10.2335 6.87547 10.1185C7.45795 9.57965 7.92086 8.92455 8.23428 8.19557C8.5477 7.46659 8.70464 6.67994 8.69497 5.8865C8.69997 5.4795 8.64347 5.0555 8.59647 4.7775ZM5.92847 8.875C5.92847 8.875 5.92847 4.7295 6.06597 4.73C6.17247 4.73 6.31097 10.0775 6.31097 10.0775C6.12047 10.055 5.92847 9.1975 5.92847 8.875Z" fill="black"/>
</svg>
