<svg width="12" height="12" viewBox="0 0 12 12" fill="none" xmlns="http://www.w3.org/2000/svg">
<path d="M2 3C2 2.72386 2.22386 2.5 2.5 2.5H9.5C9.77615 2.5 10 2.72386 10 3C10 3.27614 9.77615 3.5 9.5 3.5H2.5C2.22386 3.5 2 3.27614 2 3Z" fill="black"/>
<path d="M2 9C2 8.72385 2.22386 8.5 2.5 8.5H9.5C9.77615 8.5 10 8.72385 10 9C10 9.27615 9.77615 9.5 9.5 9.5H2.5C2.22386 9.5 2 9.27615 2 9Z" fill="black"/>
<path d="M5.5 5.5C5.22385 5.5 5 5.72385 5 6C5 6.27615 5.22385 6.5 5.5 6.5H9.5C9.77615 6.5 10 6.27615 10 6C10 5.72385 9.77615 5.5 9.5 5.5H5.5Z" fill="black"/>
</svg>
