<svg width="17" height="13" viewBox="0 0 17 13" fill="none" xmlns="http://www.w3.org/2000/svg">
<path d="M0.855263 3.90798C1.05914 3.5296 1.44922 3.16257 1.8393 2.98209C2.26625 2.78456 2.75562 2.78456 3.73438 2.78456C4.09916 2.78456 4.28155 2.78456 4.45823 2.75473C4.63289 2.72523 4.80321 2.67414 4.96527 2.60261C5.12919 2.53027 5.28146 2.42987 5.58601 2.22907L5.74198 2.12623C7.55352 0.931802 8.45931 0.334579 9.21963 0.594056C9.36545 0.643801 9.50658 0.715616 9.6326 0.804186C10.2899 1.26613 10.3398 2.34089 10.4397 4.49043C10.4767 5.28637 10.5019 5.96755 10.5019 6.34646C10.5019 6.72537 10.4767 7.40655 10.4397 8.20249C10.3398 10.352 10.2899 11.4268 9.6326 11.8887C9.50658 11.9773 9.36545 12.0491 9.21963 12.0988C8.45931 12.3583 7.55352 11.7611 5.74197 10.5667L5.58601 10.4639C5.28146 10.263 5.12919 10.1626 4.96527 10.0903C4.80321 10.0188 4.63289 9.96769 4.45823 9.9382C4.28155 9.90835 4.09916 9.90835 3.73438 9.90835C2.75562 9.90835 2.26625 9.90835 1.8393 9.71081C1.44922 9.53036 1.05914 9.16327 0.855263 8.78493C0.632125 8.37075 0.605881 7.94019 0.553393 7.07907C0.545614 6.95141 0.539409 6.82546 0.535156 6.70265" stroke="#8A8A8A" stroke-width="1.06857" stroke-linecap="round"/>
<path d="M16.3515 4.9248L13.502 7.77432M13.502 4.9248L16.3515 7.77432" stroke="#8A8A8A" stroke-width="1.06857" stroke-linecap="round"/>
</svg>
