<svg width="12" height="12" viewBox="0 0 12 12" fill="none" xmlns="http://www.w3.org/2000/svg">
<g clip-path="url(#clip0_4104_5661)">
<path d="M6.00019 11.9063C5.84316 11.9063 5.68379 11.8641 5.54551 11.7844L4.09941 10.929C3.88379 10.8071 3.98926 10.7649 4.05957 10.7415C4.34785 10.6407 4.40645 10.6196 4.71348 10.4438C4.74629 10.4251 4.78848 10.4321 4.82129 10.4532L5.93223 11.1118C5.97207 11.1352 6.02832 11.1352 6.06582 11.1118L10.3947 8.61333C10.4346 8.58989 10.4604 8.54302 10.4604 8.49614V3.49927C10.4604 3.45005 10.4346 3.40552 10.3924 3.37974L6.06582 0.883643C6.02598 0.860205 5.97207 0.860205 5.93223 0.883643L1.60801 3.38208C1.56582 3.40552 1.54004 3.45239 1.54004 3.50161V8.49614C1.54004 8.54302 1.56582 8.58989 1.60801 8.61099L2.79395 9.29536C3.43848 9.61646 3.83223 9.23911 3.83223 8.85708V3.92583C3.83223 3.85552 3.88848 3.80161 3.95879 3.80161H4.50723C4.5752 3.80161 4.63379 3.85552 4.63379 3.92583V8.85942C4.63379 9.71724 4.16504 10.2094 3.35176 10.2094C3.10098 10.2094 2.9041 10.2094 2.35566 9.93755L1.22129 9.28364C0.940039 9.12192 0.766602 8.81958 0.766602 8.4938V3.49927C0.766602 3.17583 0.940039 2.87114 1.22129 2.70942L5.54551 0.210986C5.81973 0.0562988 6.18301 0.0562988 6.45488 0.210986L10.7838 2.71177C11.065 2.87349 11.2385 3.17583 11.2385 3.50161V8.49614C11.2385 8.81958 11.065 9.12193 10.7838 9.28599L6.45488 11.7844C6.3166 11.8641 6.15957 11.9063 6.00019 11.9063ZM9.49473 6.98208C9.49473 6.04692 8.86191 5.79849 7.53301 5.62271C6.18769 5.44458 6.05176 5.35317 6.05176 5.03911C6.05176 4.77896 6.1666 4.43208 7.16269 4.43208C8.05098 4.43208 8.3791 4.62427 8.51504 5.22427C8.52676 5.28052 8.57832 5.32271 8.63691 5.32271H9.19941C9.23457 5.32271 9.26738 5.30864 9.29082 5.28286C9.31426 5.25708 9.32598 5.22192 9.32363 5.18677C9.23691 4.15317 8.55019 3.67271 7.16269 3.67271C5.92754 3.67271 5.1916 4.19302 5.1916 5.06724C5.1916 6.01411 5.92519 6.27661 7.10879 6.3938C8.52676 6.53208 8.63691 6.74067 8.63691 7.01958C8.63691 7.50239 8.24785 7.70864 7.33613 7.70864C6.19004 7.70864 5.93926 7.42036 5.85488 6.85083C5.84551 6.78989 5.79394 6.74536 5.73066 6.74536H5.17051C5.1002 6.74536 5.04629 6.80161 5.04629 6.86958C5.04629 7.59849 5.44238 8.46802 7.33848 8.46802C8.70723 8.46567 9.49473 7.92427 9.49473 6.98208Z" fill="black"/>
</g>
<defs>
<clipPath id="clip0_4104_5661">
<rect width="12" height="12" fill="white"/>
</clipPath>
</defs>
</svg>
