<svg width="12" height="12" viewBox="0 0 12 12" fill="none" xmlns="http://www.w3.org/2000/svg">
<g clip-path="url(#clip0_4104_5636)">
<path d="M6.76342 0.0494063C3.47742 -0.372094 0.470915 1.94991 0.0494151 5.23641C-0.372085 8.52241 1.94942 11.5284 5.23592 11.9504C8.52242 12.3719 11.5294 10.0499 11.9499 6.76341C12.3719 3.47741 10.0504 0.471406 6.76342 0.0494063ZM7.99892 3.79191C7.88757 3.79337 7.7812 3.83822 7.70241 3.91691L5.47591 6.14341L5.32242 5.98991L5.00092 5.66841C7.19542 3.48041 7.59092 3.45941 7.99892 3.79191ZM5.56742 6.22241L7.78742 4.00241C7.81651 3.97189 7.85153 3.94763 7.89032 3.93111C7.92912 3.91459 7.97088 3.90616 8.01304 3.90633C8.05521 3.9065 8.09689 3.91528 8.13555 3.93211C8.17421 3.94895 8.20903 3.97349 8.23788 4.00425C8.26672 4.035 8.28899 4.07132 8.30332 4.11097C8.31765 4.15063 8.32374 4.19279 8.32122 4.23488C8.31869 4.27697 8.30761 4.31811 8.28864 4.35577C8.26968 4.39342 8.24323 4.42682 8.21092 4.45391L5.86141 6.51641L5.56742 6.22241ZM5.73242 6.56941L5.18242 6.68841C5.17585 6.68989 5.16897 6.68911 5.16289 6.68621C5.15682 6.68331 5.15189 6.67845 5.14892 6.67241C5.14557 6.66663 5.14425 6.65991 5.14515 6.6533C5.14606 6.64669 5.14914 6.64057 5.15391 6.63591L5.47642 6.31341L5.73242 6.56941ZM4.33091 6.33991L4.91691 5.75391L5.35642 6.19291L4.36692 6.40591C4.35867 6.40805 4.34994 6.40727 4.34219 6.40372C4.33445 6.40017 4.32817 6.39405 4.32442 6.38641C4.31976 6.37916 4.31785 6.37048 4.31904 6.36195C4.32023 6.35342 4.32445 6.3456 4.33091 6.33991ZM2.50792 9.36891C2.50292 9.36847 2.49806 9.36704 2.49361 9.36472C2.48917 9.36239 2.48523 9.3592 2.48202 9.35534C2.47881 9.35149 2.4764 9.34703 2.47492 9.34224C2.47345 9.33744 2.47293 9.3324 2.47342 9.32741C2.47436 9.31871 2.47824 9.3106 2.48442 9.30441H2.48542L2.95842 8.83141L3.56942 9.44241L2.50792 9.36891ZM3.72042 8.74091C3.69775 8.75262 3.67966 8.7716 3.66906 8.7948C3.65845 8.81801 3.65594 8.8441 3.66192 8.86891L3.76342 9.30141C3.76669 9.31473 3.76549 9.32877 3.76 9.34134C3.75451 9.35392 3.74503 9.36434 3.73303 9.371C3.72103 9.37765 3.70717 9.38017 3.6936 9.37817C3.68002 9.37616 3.66748 9.36975 3.65792 9.35991H3.65642L3.18942 8.89291L3.04242 8.74541L4.92342 6.86641L5.83342 6.66991L6.27042 7.10691C5.64292 7.65791 4.78492 8.20741 3.72042 8.74091ZM6.35992 7.02691H6.35892L5.93941 6.60741L8.28891 4.54491C8.31065 4.5256 8.33056 4.50435 8.34842 4.48141C8.27442 5.15391 7.33392 6.10391 6.35992 7.02691ZM8.18842 3.79691L8.18692 3.79591C8.0216 3.62981 7.92666 3.40639 7.92181 3.1721C7.91697 2.9378 8.0026 2.71065 8.16091 2.53786C8.31921 2.36507 8.53802 2.25993 8.77184 2.2443C9.00566 2.22866 9.23651 2.30373 9.41642 2.45391L8.61141 3.26041C8.60584 3.26594 8.60141 3.27252 8.59839 3.27977C8.59537 3.28702 8.59381 3.2948 8.59381 3.30266C8.59381 3.31051 8.59537 3.31829 8.59839 3.32554C8.60141 3.33279 8.60584 3.33937 8.61141 3.34491L9.23491 3.96841C9.06449 4.053 8.87181 4.08196 8.68405 4.05119C8.49628 4.02042 8.32292 3.93148 8.18842 3.79691ZM9.47742 3.79691C9.43606 3.83774 9.39066 3.87426 9.34192 3.90591L8.73792 3.30241L9.50442 2.53591C9.83492 2.89591 9.82292 3.45191 9.47742 3.79691ZM9.42741 3.02491C9.41539 3.03362 9.40638 3.04586 9.40164 3.05993C9.39689 3.07399 9.39664 3.08919 9.40092 3.10341C9.41872 3.13946 9.42569 3.1799 9.42099 3.21983C9.41628 3.25976 9.40011 3.29748 9.37442 3.32841C9.36869 3.33562 9.36444 3.3439 9.36192 3.35276C9.35939 3.36162 9.35865 3.37089 9.35971 3.38004C9.36078 3.3892 9.36365 3.39805 9.36814 3.40609C9.37264 3.41413 9.37868 3.4212 9.38591 3.42691C9.39792 3.43632 9.41266 3.44158 9.42792 3.44191C9.43803 3.44182 9.44801 3.43954 9.45716 3.43522C9.46631 3.4309 9.47441 3.42466 9.48092 3.41691C9.52386 3.36531 9.55085 3.30232 9.55857 3.23563C9.5663 3.16895 9.55443 3.10146 9.52442 3.04141C9.51918 3.03389 9.5125 3.0275 9.50477 3.02259C9.49703 3.01768 9.4884 3.01436 9.47937 3.01283C9.47034 3.01129 9.4611 3.01157 9.45218 3.01364C9.44326 3.01572 9.43484 3.01955 9.42741 3.02491Z" fill="black"/>
</g>
<defs>
<clipPath id="clip0_4104_5636">
<rect width="12" height="12" fill="white"/>
</clipPath>
</defs>
</svg>
