<svg width="12" height="12" viewBox="0 0 12 12" fill="none" xmlns="http://www.w3.org/2000/svg">
<g clip-path="url(#clip0_4104_5688)">
<path d="M11.78 7.3614C11.7732 7.34045 11.7637 7.32044 11.7519 7.30185C11.6824 7.17025 11.5135 7.13095 11.2482 7.1858C10.4215 7.35635 10.1014 7.2514 9.98537 7.17625C10.6564 6.15215 11.2079 4.91525 11.5059 3.7614C11.6416 3.23605 11.905 1.99955 11.567 1.3956C11.5454 1.35426 11.5202 1.31494 11.4916 1.2781C10.8469 0.454301 9.90067 0.0124007 8.75527 0.000250702C8.00792 -0.0076493 7.37002 0.173301 7.19722 0.239951C7.11163 0.223976 7.02561 0.210371 6.93927 0.199151C6.72282 0.159956 6.50351 0.138584 6.28357 0.135251C5.69247 0.126051 5.18167 0.267351 4.75867 0.555551C4.33002 0.395001 2.36427 -0.266949 1.14772 0.594951C0.468267 1.0763 0.154617 1.93665 0.215417 3.15215C0.235867 3.56115 0.468867 4.81915 0.836567 6.02395C1.06647 6.7772 1.30592 7.3749 1.55327 7.81495C1.82977 8.31205 2.11622 8.6116 2.41042 8.7097C2.63412 8.78425 2.97677 8.78175 3.33947 8.34575C3.74007 7.864 4.13462 7.43285 4.31177 7.2423C4.52932 7.36005 4.76497 7.42355 5.00677 7.4309C5.00681 7.43159 5.00688 7.43227 5.00697 7.43295C4.96486 7.48311 4.92366 7.53402 4.88337 7.58565C4.71392 7.80075 4.67867 7.8455 4.13327 7.9578C3.97817 7.9898 3.56607 8.07475 3.56007 8.36355C3.55882 8.42475 3.57652 8.479 3.60602 8.52695C3.71947 8.7385 4.06682 8.8318 4.11352 8.8435C4.78077 9.01025 5.36572 8.8895 5.79922 8.50415C5.79072 9.61965 5.83797 10.7129 5.97192 11.0479C6.08252 11.3243 6.35282 12.0001 7.20652 12C7.33177 12 7.46967 11.9855 7.62132 11.953C8.51227 11.7619 8.89917 11.3682 9.04882 10.5C9.12397 10.0647 9.24962 9.06235 9.31822 8.4494C9.32667 8.41425 9.33607 8.38905 9.34672 8.3813C9.34707 8.38105 9.38157 8.35775 9.56032 8.39665C9.56762 8.39823 9.57502 8.39937 9.58247 8.40005L9.70942 8.4112L9.71687 8.4117C10.1403 8.4309 10.6726 8.3404 10.9825 8.1963C11.3044 8.0469 11.8853 7.68015 11.78 7.3614ZM1.18582 5.93825C0.814067 4.72035 0.596867 3.4957 0.579667 3.1523C0.525367 2.0666 0.788217 1.31085 1.36082 0.905951C2.27917 0.256651 3.78072 0.635551 4.41482 0.840951C4.41322 0.842551 4.41152 0.844001 4.40992 0.845651C3.39802 1.86765 3.42202 3.61365 3.42452 3.7204C3.42442 3.76155 3.42782 3.81985 3.43262 3.90005C3.45002 4.1937 3.48242 4.74025 3.39587 5.35925C3.31542 5.93445 3.49272 6.49745 3.88227 6.90385C3.92257 6.9459 3.96467 6.9854 4.00817 7.02255C3.83477 7.20825 3.45797 7.61885 3.05692 8.10135C2.77307 8.4426 2.57707 8.3772 2.51262 8.3557C2.31667 8.29035 2.10612 8.06215 1.89357 7.69455C1.65377 7.27505 1.41182 6.6787 1.18582 5.93825ZM4.18942 8.4818C4.10387 8.4604 4.02587 8.4252 3.97332 8.3932C4.01777 8.3735 4.09202 8.3481 4.21497 8.32275C4.85662 8.1907 4.95572 8.09745 5.17212 7.82265C5.22172 7.75965 5.27792 7.6883 5.35577 7.60135C5.37251 7.58257 5.38507 7.56045 5.39262 7.53645C5.47802 7.4608 5.52882 7.4815 5.61107 7.5156C5.68907 7.5479 5.76497 7.6456 5.79582 7.7532C5.81037 7.804 5.82677 7.90045 5.77322 7.9754C5.32107 8.6083 4.66242 8.6001 4.18942 8.4818ZM5.23642 6.4878L5.21017 6.5583C5.14367 6.7366 5.08182 6.90235 5.04347 7.0598C4.70977 7.05875 4.38507 6.9162 4.13822 6.6586C3.82427 6.33105 3.68167 5.8754 3.74697 5.4084C3.83837 4.75445 3.80462 4.185 3.78647 3.8791C3.78397 3.83625 3.78172 3.79875 3.78037 3.76915C3.92822 3.6381 4.61332 3.27105 5.10182 3.38295C5.32477 3.43405 5.46062 3.5858 5.51707 3.84695C5.80937 5.19885 5.55577 5.7623 5.35197 6.2151C5.30997 6.3084 5.27032 6.39655 5.23642 6.4878ZM8.91827 8.77405C8.90982 8.86245 8.90037 8.96205 8.88737 9.072L8.81437 9.29115C8.80857 9.30852 8.8055 9.32669 8.80527 9.345C8.80232 9.58235 8.77827 9.66945 8.74777 9.77965C8.71607 9.89425 8.68012 10.0242 8.65807 10.3084C8.60307 11.0156 8.21897 11.4218 7.44947 11.5867C6.69172 11.7492 6.55732 11.3383 6.43887 10.9758C6.42674 10.9378 6.41392 10.9 6.40042 10.8625C6.29272 10.5696 6.30487 10.1566 6.32172 9.58495C6.32997 9.30435 6.30927 8.6343 6.15662 8.26185C6.15882 8.11525 6.16192 7.9664 6.16612 7.81595C6.16662 7.79689 6.16404 7.77788 6.15847 7.75965C6.15363 7.72451 6.1463 7.68975 6.13652 7.65565C6.07522 7.4415 5.92587 7.26235 5.74667 7.1881C5.67547 7.1586 5.54477 7.1045 5.38777 7.14465C5.42127 7.00665 5.47932 6.8509 5.54227 6.6822L5.56872 6.6112C5.59847 6.5312 5.63572 6.44835 5.67522 6.3606C5.88847 5.8868 6.18052 5.23795 5.86352 3.772C5.74482 3.22295 5.34832 2.95485 4.74732 3.0171C4.38697 3.0544 4.05737 3.1998 3.89292 3.28315C3.85995 3.29986 3.82731 3.31721 3.79502 3.3352C3.84092 2.782 4.01432 1.74815 4.66287 1.09405C4.71104 1.04551 4.76166 0.999448 4.81452 0.956051C4.84076 0.950933 4.8655 0.939923 4.88687 0.923851C5.26307 0.638551 5.73412 0.498551 6.28787 0.507601C6.49242 0.510951 6.68872 0.524551 6.87497 0.548101C7.84447 0.725301 8.49692 1.2715 8.89292 1.73945C9.30007 2.2206 9.52052 2.7052 9.60852 2.9666C8.94692 2.8993 8.49682 3.03 8.26867 3.3561C7.77237 4.06555 8.54017 5.44255 8.90922 6.1043C8.97687 6.2256 9.03532 6.3304 9.05367 6.37495C9.17382 6.6662 9.32942 6.8606 9.44302 7.00255C9.47782 7.04605 9.51162 7.08825 9.53727 7.12505C9.33687 7.1828 8.97687 7.3163 9.00967 7.98355C9.00352 8.0617 8.98852 8.207 8.96797 8.39095C8.94492 8.4948 8.93287 8.6211 8.91827 8.77405ZM9.36352 7.9635C9.34327 7.5477 9.49807 7.50425 9.66187 7.45825C9.68453 7.45204 9.70704 7.44527 9.72937 7.43795C9.7505 7.45667 9.77292 7.47388 9.79647 7.48945C10.0816 7.6777 10.5876 7.7001 11.2999 7.55665C11.1991 7.6451 11.0404 7.75635 10.8232 7.8572C10.6183 7.95235 10.2754 8.0237 9.94957 8.039C9.58972 8.0558 9.40662 7.99865 9.36352 7.9635ZM9.64827 3.3279C9.64532 3.5033 9.62117 3.6625 9.59557 3.82875C9.56807 4.00755 9.53957 4.19245 9.53237 4.41685C9.52527 4.63525 9.55257 4.8623 9.57897 5.0819C9.63227 5.5254 9.68697 5.98205 9.47522 6.4326C9.44007 6.3703 9.40874 6.30591 9.38142 6.2398C9.35507 6.176 9.29797 6.0735 9.21887 5.9317C8.91107 5.37965 8.19017 4.0869 8.55922 3.5594C8.74897 3.28805 9.22962 3.27635 9.64827 3.3279ZM9.76247 6.83475C9.74835 6.81677 9.73413 6.79887 9.71982 6.78105L9.70207 6.75885C10.0652 6.1591 9.99417 5.56575 9.93097 5.0396C9.90502 4.8237 9.88052 4.6198 9.88672 4.4283C9.89317 4.22525 9.92002 4.05115 9.94597 3.88275C9.97792 3.67525 10.0104 3.4606 10.0014 3.2075C10.0081 3.18095 10.0108 3.1496 10.0073 3.1124C9.98447 2.86965 9.70737 2.1434 9.14262 1.4859C8.83882 1.13225 8.39782 0.737301 7.79817 0.466151C8.06072 0.412851 8.41457 0.364401 8.81037 0.373201C9.83612 0.396001 10.6477 0.779951 11.2225 1.5144C11.2347 1.53034 11.2458 1.54708 11.2558 1.5645C11.6174 2.2423 11.1177 4.70205 9.76247 6.83475ZM5.35417 3.77665C5.34167 3.86635 5.19972 3.9879 5.04362 3.9879C5.03008 3.98791 5.01657 3.98697 5.00317 3.9851C4.90952 3.9721 4.81492 3.9131 4.75022 3.8273C4.72732 3.79705 4.69007 3.7383 4.69747 3.6851C4.70022 3.66505 4.71052 3.63585 4.74372 3.6107C4.80282 3.566 4.91962 3.5494 5.04852 3.56735C5.20667 3.5894 5.36982 3.66425 5.35417 3.77665ZM9.31942 3.57095C9.32497 3.61055 9.29492 3.67145 9.24287 3.72605C9.20872 3.7619 9.13687 3.8241 9.03892 3.83765C9.02649 3.83938 9.01396 3.84025 9.00142 3.84025C8.85467 3.84025 8.73072 3.72305 8.72107 3.6544C8.70907 3.56615 8.85312 3.4991 9.00162 3.4784C9.15012 3.4577 9.30717 3.4828 9.31942 3.57095Z" fill="black"/>
</g>
<defs>
<clipPath id="clip0_4104_5688">
<rect width="12" height="12" fill="white"/>
</clipPath>
</defs>
</svg>
