<svg width="12" height="12" viewBox="0 0 12 12" fill="none" xmlns="http://www.w3.org/2000/svg">
<path d="M10.9037 9.14239L6.77666 0.378243C6.67316 0.159143 6.45716 0.0145934 6.21236 0.00119342C5.96121 -0.0134566 5.73621 0.107693 5.60926 0.313843L1.13326 7.56354C0.994606 7.78944 0.997356 8.06809 1.14116 8.29129L3.32911 11.6806C3.45951 11.8829 3.68546 12 3.92026 12C3.98686 12 4.05376 11.9906 4.11961 11.9711L10.4706 10.0927C10.6651 10.0352 10.8242 9.89754 10.9074 9.71509C10.9907 9.53264 10.9891 9.32369 10.9037 9.14239ZM9.97961 9.51834L4.59096 11.1121C4.42636 11.1608 4.26856 11.0184 4.30316 10.8524L6.22821 1.63309C6.26421 1.46069 6.50251 1.43329 6.57771 1.59294L10.1421 9.16194C10.2093 9.30474 10.1326 9.47314 9.97961 9.51834Z" fill="black"/>
</svg>
