<svg width="12" height="12" viewBox="0 0 12 12" fill="none" xmlns="http://www.w3.org/2000/svg">
<g clip-path="url(#clip0_4104_5614)">
<path d="M11.0578 4.69925C10.8774 3.97503 10.5352 3.42894 9.80627 3.42894H8.86642V4.53987C8.86642 5.40237 8.13517 6.12894 7.3008 6.12894H4.79767C4.1133 6.12894 3.54611 6.71487 3.54611 7.40159V9.78753C3.54611 10.4672 4.13674 10.8657 4.79767 11.0602C5.58986 11.2922 6.35158 11.3344 7.3008 11.0602C7.93127 10.8774 8.55236 10.5094 8.55236 9.78753V8.83362H6.05158V8.51487H9.80627C10.5352 8.51487 10.8047 8.00628 11.0578 7.24456C11.3203 6.45941 11.3086 5.70472 11.0578 4.69925ZM7.45783 9.46878C7.71799 9.46878 7.92892 9.68206 7.92892 9.94456C7.92892 10.2094 7.71799 10.4227 7.45783 10.4227C7.20002 10.4227 6.98674 10.2071 6.98674 9.94456C6.98908 9.67972 7.20002 9.46878 7.45783 9.46878ZM4.68283 5.81487H7.18596C7.88205 5.81487 8.43752 5.24066 8.43752 4.54222V2.15394C8.43752 1.47425 7.86564 0.965655 7.18596 0.850812C6.34689 0.71253 5.43517 0.719562 4.68283 0.853155C3.62346 1.04066 3.43127 1.43206 3.43127 2.15628V3.11019H5.93674V3.42894H2.49142C1.76252 3.42894 1.12502 3.86722 0.925799 4.69925C0.696111 5.65316 0.686736 6.24847 0.925799 7.24456C1.10392 7.98519 1.52814 8.51487 2.25705 8.51487H3.11721V7.37112C3.11721 6.54378 3.83205 5.81487 4.68283 5.81487ZM4.5258 2.47269C4.26564 2.47269 4.05471 2.25941 4.05471 1.99691C4.05705 1.73206 4.26564 1.51878 4.5258 1.51878C4.78361 1.51878 4.99689 1.73441 4.99689 1.99691C4.99689 2.25941 4.78596 2.47269 4.5258 2.47269Z" fill="black"/>
</g>
<defs>
<clipPath id="clip0_4104_5614">
<rect width="12" height="12" fill="white"/>
</clipPath>
</defs>
</svg>
