<svg width="12" height="12" viewBox="0 0 12 12" fill="none" xmlns="http://www.w3.org/2000/svg">
<g clip-path="url(#clip0_4104_5605)">
<path d="M9.80156 4.15308C9.675 4.11089 9.54844 4.07104 9.42188 4.03354C9.44297 3.94683 9.46172 3.86011 9.48047 3.77339C9.76875 2.37651 9.57891 1.25386 8.93906 0.883545C8.32266 0.529639 7.31719 0.897607 6.3 1.78354C6.19922 1.87026 6.10078 1.96167 6.00703 2.05308C5.94375 1.99214 5.87812 1.9312 5.8125 1.87261C4.74609 0.925732 3.67734 0.527295 3.0375 0.899951C2.42344 1.2562 2.24062 2.31323 2.49844 3.63511C2.52422 3.76636 2.55234 3.89526 2.58516 4.02651C2.43516 4.0687 2.2875 4.11558 2.14922 4.16479C0.897656 4.59839 0 5.28276 0 5.99058C0 6.72183 0.95625 7.45542 2.25703 7.90073C2.3625 7.93589 2.46797 7.97104 2.57578 8.00151C2.54063 8.14214 2.51016 8.28042 2.48203 8.42339C2.23594 9.72417 2.42813 10.7554 3.04219 11.1093C3.675 11.475 4.73906 11.1 5.775 10.1929C5.85703 10.1203 5.93906 10.0453 6.02109 9.96558C6.12422 10.0664 6.23203 10.1625 6.33984 10.2562C7.34297 11.1187 8.33438 11.4679 8.94609 11.114C9.57891 10.7484 9.78516 9.63979 9.51797 8.28979C9.49688 8.18667 9.47344 8.0812 9.44766 7.97339C9.52266 7.95229 9.59531 7.92886 9.66797 7.90542C11.0203 7.45776 12 6.73354 12 5.99058C12 5.28042 11.0766 4.59136 9.80156 4.15308ZM6.63047 2.16323C7.50234 1.40386 8.31563 1.1062 8.68594 1.31948C9.08203 1.54683 9.23437 2.46558 8.98594 3.67261C8.96953 3.75229 8.95313 3.82964 8.93203 3.90698C8.41172 3.78979 7.88437 3.70542 7.35469 3.65854C7.05 3.22261 6.71719 2.80542 6.35625 2.41401C6.44766 2.32729 6.53672 2.24526 6.63047 2.16323ZM3.91875 7.20698C4.03828 7.41089 4.16016 7.61479 4.28906 7.81401C3.92344 7.77417 3.56016 7.71558 3.20156 7.63823C3.30469 7.30073 3.43359 6.95151 3.58359 6.59526C3.69141 6.80151 3.80156 7.00542 3.91875 7.20698ZM3.20859 4.38745C3.54609 4.31245 3.90469 4.25151 4.27734 4.20464C4.15312 4.39917 4.03125 4.59839 3.91641 4.79995C3.80156 4.99917 3.68906 5.20308 3.58359 5.40933C3.43594 5.06011 3.31172 4.71792 3.20859 4.38745ZM3.85078 6.00229C4.00547 5.67886 4.17422 5.36245 4.35234 5.05073C4.53047 4.73901 4.72266 4.43667 4.92422 4.13901C5.27578 4.11323 5.63437 4.09917 6 4.09917C6.36563 4.09917 6.72656 4.11323 7.07578 4.13901C7.275 4.43433 7.46484 4.73667 7.64531 5.04604C7.82578 5.35542 7.99453 5.67183 8.15391 5.99292C7.99687 6.31636 7.82812 6.63511 7.64766 6.94917C7.46953 7.26089 7.27969 7.56323 7.08047 7.86323C6.73125 7.88901 6.36797 7.90073 6 7.90073C5.63203 7.90073 5.27578 7.88901 4.93125 7.86792C4.72734 7.57026 4.53516 7.26558 4.35469 6.95386C4.17422 6.64214 4.00781 6.32573 3.85078 6.00229ZM8.08359 7.20229C8.20312 6.99604 8.31563 6.78745 8.42578 6.57651C8.57578 6.91636 8.70703 7.26089 8.82187 7.61479C8.45859 7.69683 8.09062 7.76011 7.72031 7.80229C7.84687 7.60542 7.96641 7.40386 8.08359 7.20229ZM8.42109 5.40933C8.31094 5.20308 8.19844 4.99683 8.08125 4.79526C7.96641 4.59604 7.84688 4.39917 7.72266 4.20464C8.1 4.25151 8.46094 4.31479 8.79844 4.39214C8.69062 4.73901 8.56406 5.07651 8.42109 5.40933ZM6.00469 2.77261C6.25078 3.03979 6.48281 3.32104 6.69844 3.61167C6.23437 3.59058 5.76797 3.59058 5.30391 3.61167C5.53359 3.30933 5.77031 3.02808 6.00469 2.77261ZM3.28594 1.33589C3.67969 1.1062 4.55391 1.43433 5.475 2.24995C5.53359 2.30151 5.59219 2.35776 5.65312 2.41401C5.28984 2.80542 4.95469 3.22261 4.64766 3.65854C4.11797 3.70542 3.59297 3.78745 3.07266 3.90229C3.04219 3.78276 3.01641 3.66089 2.99062 3.53901C2.77031 2.40464 2.91562 1.54917 3.28594 1.33589ZM2.71172 7.51401C2.61328 7.48589 2.51719 7.45542 2.42109 7.42261C1.92188 7.26558 1.35469 7.01714 0.944531 6.69136C0.707812 6.52729 0.548437 6.27417 0.503906 5.99058C0.503906 5.56167 1.24453 5.01323 2.31328 4.64058C2.44687 4.5937 2.58281 4.55151 2.71875 4.51167C2.87813 5.02026 3.07031 5.51948 3.29297 6.00229C3.06797 6.49214 2.87344 6.99839 2.71172 7.51401ZM5.44453 9.81089C5.05781 10.1648 4.61016 10.446 4.12266 10.6382C3.8625 10.7625 3.5625 10.7742 3.29531 10.6687C2.92266 10.4531 2.76797 9.62573 2.97891 8.51245C3.00469 8.3812 3.03281 8.24995 3.06563 8.12104C3.59063 8.23354 4.12031 8.31089 4.65703 8.35073C4.96641 8.78901 5.30625 9.20854 5.66953 9.60229C5.59453 9.67495 5.51953 9.74526 5.44453 9.81089ZM6.01875 9.24136C5.77969 8.98354 5.54062 8.69761 5.30859 8.39058C5.53359 8.39995 5.76562 8.40464 6 8.40464C6.24141 8.40464 6.47812 8.39995 6.7125 8.38823C6.49687 8.68589 6.26484 8.96948 6.01875 9.24136ZM9.08203 9.94448C9.06094 10.2304 8.92031 10.4976 8.69531 10.6781C8.32266 10.8937 7.52813 10.6125 6.67031 9.87651C6.57188 9.79214 6.47344 9.70073 6.37266 9.60698C6.73125 9.21089 7.06172 8.79136 7.36172 8.35073C7.89844 8.3062 8.43281 8.22417 8.96016 8.10464C8.98359 8.20073 9.00469 8.29683 9.02344 8.39058C9.13828 8.89683 9.15703 9.42417 9.08203 9.94448ZM9.50859 7.42495C9.44297 7.44604 9.37734 7.46714 9.30938 7.48589C9.14531 6.97495 8.94375 6.47573 8.71172 5.99058C8.93672 5.51245 9.12656 5.02026 9.28594 4.51636C9.40781 4.55151 9.525 4.58901 9.6375 4.62651C10.7297 5.00151 11.4961 5.55933 11.4961 5.98589C11.4961 6.44526 10.6781 7.03823 9.50859 7.42495ZM6 7.07339C6.59297 7.07339 7.07344 6.59292 7.07344 5.99995C7.07344 5.40698 6.59297 4.92651 6 4.92651C5.40703 4.92651 4.92656 5.40698 4.92656 5.99995C4.92656 6.59292 5.40703 7.07339 6 7.07339Z" fill="black"/>
</g>
<defs>
<clipPath id="clip0_4104_5605">
<rect width="12" height="12" fill="white"/>
</clipPath>
</defs>
</svg>
