<svg width="12" height="12" viewBox="0 0 12 12" fill="none" xmlns="http://www.w3.org/2000/svg">
<g clip-path="url(#clip0_4104_5670)">
<path d="M11.355 6.5725C10.525 7.6185 9.629 8.814 7.836 8.814C6.2345 8.814 5.6375 7.4015 5.596 6.254C5.9465 6.996 6.6325 7.5965 7.703 7.569C9.7615 7.5025 11.173 5.643 11.173 3.9495C11.173 1.9245 9.662 0.463501 7.039 0.463501C5.163 0.463501 2.839 1.1775 1.3115 2.306C1.295 3.4685 1.9425 4.979 2.175 4.813C3.499 3.861 4.549 3.248 5.567 2.941C4.06 4.622 0.443 8.525 0 9.2125C0.05 9.843 0.83 11.5365 1.212 11.5365C1.328 11.5365 1.4275 11.47 1.544 11.354C2.51597 10.2672 3.44018 9.13866 4.314 7.9715C4.425 9.5235 5.188 11.4205 7.321 11.4205C9.2305 11.4205 11.123 10.0425 11.986 6.938C12.086 6.556 11.621 6.2575 11.3555 6.573L11.355 6.5725ZM9.1805 4.066C9.1805 5.0455 8.2175 5.527 7.338 5.527C6.8675 5.527 6.506 5.4035 6.2205 5.243C6.746 4.447 7.2665 3.6305 7.8255 2.7565C8.8115 2.9235 9.1805 3.4715 9.1805 4.066Z" fill="black"/>
</g>
<defs>
<clipPath id="clip0_4104_5670">
<rect width="12" height="12" fill="white"/>
</clipPath>
</defs>
</svg>
