<svg width="12" height="12" viewBox="0 0 12 12" fill="none" xmlns="http://www.w3.org/2000/svg">
<g clip-path="url(#clip0_4104_5667)">
<path d="M11.1096 5.89188L5.89213 11.1094C5.68863 11.3129 5.68863 11.6434 5.89213 11.8474C6.09563 12.0509 6.42613 12.0509 6.63013 11.8474L11.8476 6.62988C12.0511 6.42588 12.0511 6.09538 11.8476 5.89188C11.6436 5.68838 11.3131 5.68838 11.1096 5.89188ZM10.0661 0.152381L0.152625 10.0659C-0.050875 10.2694 -0.050875 10.5999 0.152625 10.8039C0.356625 11.0074 0.687125 11.0074 0.890625 10.8039L10.8041 0.890381C11.0076 0.686881 11.0076 0.356381 10.8041 0.152381C10.6001 -0.0511191 10.2696 -0.0511191 10.0661 0.152381Z" fill="black"/>
</g>
<defs>
<clipPath id="clip0_4104_5667">
<rect width="12" height="12" fill="white"/>
</clipPath>
</defs>
</svg>
