<svg width="12" height="12" viewBox="0 0 12 12" fill="none" xmlns="http://www.w3.org/2000/svg">
<path d="M6 0.625C7.2435 0.625 8.3865 0.826 9.233 1.1645C9.655 1.333 10.0215 1.5435 10.289 1.7965C10.557 2.05 10.75 2.372 10.75 2.75V9.2435L10.737 9.25H10.75C10.75 9.628 10.557 9.95 10.289 10.2035C10.0215 10.4565 9.655 10.667 9.233 10.8355C8.3865 11.174 7.2435 11.375 6 11.375C4.7565 11.375 3.613 11.174 2.767 10.8355C2.345 10.667 1.9785 10.4565 1.711 10.2035C1.443 9.95 1.25 9.628 1.25 9.25H1.263L1.25 9.2435V2.75C1.25 2.372 1.443 2.05 1.711 1.7965C1.9785 1.5435 2.345 1.333 2.767 1.1645C3.613 0.826 4.7565 0.625 6 0.625ZM2 7.1855V9.2435L1.9935 9.25H2C2 9.3555 2.0515 9.4935 2.2265 9.6585C2.402 9.8245 2.6755 9.9915 3.0455 10.1395C3.783 10.434 4.8275 10.625 6 10.625C7.1725 10.625 8.217 10.4345 8.9545 10.1395C9.324 9.9915 9.5985 9.8245 9.7735 9.6585C9.948 9.4935 10 9.355 10 9.25H10.0065L10 9.2435V7.1855C9.75985 7.34669 9.50262 7.48083 9.233 7.5855C8.3865 7.924 7.2435 8.125 6 8.125C4.7565 8.125 3.613 7.924 2.767 7.5855C2.49736 7.48086 2.24013 7.34671 2 7.1855ZM10 6V3.9355C9.75985 4.09669 9.50262 4.23083 9.233 4.3355C8.3865 4.674 7.2435 4.875 6 4.875C4.7565 4.875 3.613 4.674 2.767 4.3355C2.49738 4.23083 2.24015 4.09669 2 3.9355V6C2 6.105 2.052 6.2435 2.2265 6.4085C2.4015 6.5745 2.676 6.7415 3.0455 6.889C3.783 7.184 4.8275 7.375 6 7.375C7.1725 7.375 8.217 7.184 8.9545 6.889C9.3245 6.7415 9.598 6.5745 9.7735 6.409C9.9485 6.244 10 6.1055 10 6ZM2 2.75C2 2.8555 2.0515 2.9935 2.2265 3.1585C2.402 3.3245 2.6755 3.4915 3.0455 3.6395C3.783 3.934 4.8275 4.125 6 4.125C7.1725 4.125 8.217 3.9345 8.9545 3.6395C9.324 3.4915 9.5985 3.3245 9.7735 3.1585C9.948 2.9935 10 2.855 10 2.75C10 2.6445 9.9485 2.5065 9.7735 2.3415C9.598 2.1755 9.3245 2.0085 8.9545 1.8605C8.217 1.566 7.1725 1.375 6 1.375C4.8275 1.375 3.783 1.5655 3.0455 1.8605C2.676 2.0085 2.4015 2.1755 2.2265 2.3415C2.052 2.5065 2 2.645 2 2.75Z" fill="black"/>
</svg>
