<svg width="12" height="12" viewBox="0 0 12 12" fill="none" xmlns="http://www.w3.org/2000/svg">
<g clip-path="url(#clip0_4104_5639)">
<path d="M6.00098 2.40002C4.40098 2.40002 3.40098 3.20002 3.00098 4.80002C3.60098 4.00002 4.30098 3.70002 5.10098 3.90002C5.55748 4.01402 5.88348 4.34502 6.24498 4.71202C6.83348 5.30902 7.51398 6.00002 9.00098 6.00002C10.601 6.00002 11.601 5.20002 12.001 3.60002C11.401 4.40002 10.701 4.70002 9.90098 4.50002C9.44448 4.38602 9.11848 4.05502 8.75698 3.68802C8.16898 3.09102 7.48848 2.40002 6.00098 2.40002ZM3.00098 6.00002C1.40098 6.00002 0.400977 6.80002 0.000976562 8.40002C0.600977 7.60002 1.30098 7.30002 2.10098 7.50002C2.55748 7.61402 2.88348 7.94502 3.24498 8.31202C3.83348 8.90902 4.51398 9.60002 6.00098 9.60002C7.60098 9.60002 8.60098 8.80002 9.00098 7.20002C8.40098 8.00002 7.70098 8.30002 6.90098 8.10002C6.44448 7.98602 6.11848 7.65502 5.75698 7.28802C5.16898 6.69102 4.48848 6.00002 3.00098 6.00002Z" fill="black"/>
</g>
<defs>
<clipPath id="clip0_4104_5639">
<rect width="12" height="12" fill="white"/>
</clipPath>
</defs>
</svg>
