<svg width="12" height="12" viewBox="0 0 12 12" fill="none" xmlns="http://www.w3.org/2000/svg">
<g clip-path="url(#clip0_4104_5682)">
<path d="M3.46481 6.84371C3.54681 6.79681 3.65231 6.82611 3.69916 6.91011L3.73041 6.96286C3.97066 7.38861 4.22066 7.79291 4.48041 8.17576C4.78706 8.62691 5.13276 9.08396 5.51756 9.54681C5.54685 9.58162 5.56123 9.62658 5.55757 9.67193C5.55391 9.71727 5.53251 9.75935 5.49801 9.78901L5.46091 9.82221C4.18941 10.9336 3.36521 11.1542 2.98431 10.4882C2.61131 9.83591 2.74606 8.65231 3.38861 6.93356C3.40263 6.89557 3.42962 6.86375 3.46481 6.84371ZM8.87496 8.15036C8.96676 8.13471 9.05466 8.19336 9.07221 8.28511L9.08201 8.33591C9.39646 9.97846 9.17576 10.8008 8.41986 10.8008C7.67966 10.8008 6.74021 10.0996 5.59566 8.69916C5.56996 8.66792 5.55674 8.62827 5.55856 8.58786C5.55856 8.49411 5.63666 8.41791 5.73041 8.41791H5.79096C6.25954 8.4216 6.72807 8.40532 7.19526 8.36911C7.73041 8.32611 8.29096 8.25386 8.87496 8.15036ZM9.31046 4.66206C9.32647 4.61889 9.35873 4.58369 9.40034 4.56398C9.44195 4.54426 9.48962 4.5416 9.53316 4.55656L9.58396 4.57416C11.2148 5.12886 11.8359 5.74016 11.4433 6.40621C11.0605 7.05856 9.94721 7.53321 8.10151 7.83006C8.06051 7.83591 8.01751 7.82806 7.98236 7.80656C7.89836 7.75776 7.86911 7.65231 7.91986 7.56831L7.95111 7.51561C8.20311 7.09371 8.42961 6.67381 8.63471 6.25386C8.87301 5.75971 9.09951 5.22846 9.31046 4.66206ZM3.89846 4.16986C3.93946 4.16401 3.98246 4.17186 4.01761 4.19336C4.10161 4.24216 4.13086 4.34761 4.08011 4.43161L4.04886 4.48431C3.80338 4.89511 3.57531 5.31607 3.36526 5.74606C3.12696 6.24021 2.90041 6.77146 2.68946 7.33786C2.67345 7.38102 2.64121 7.41621 2.59961 7.43592C2.55801 7.45563 2.51035 7.4583 2.46681 7.44336L2.41601 7.42576C0.785163 6.87106 0.164063 6.25976 0.556663 5.59371C0.939463 4.94136 2.05276 4.46671 3.89846 4.16986ZM6.53906 2.17771C7.81056 1.06636 8.63476 0.845709 9.01566 1.51171C9.38866 2.16401 9.25391 3.34761 8.61136 5.06636C8.59735 5.10435 8.57036 5.13618 8.53516 5.15621C8.45316 5.20311 8.34766 5.17381 8.30081 5.08981L8.26956 5.03706C8.02931 4.61131 7.77931 4.20701 7.51956 3.82416C7.21291 3.37301 6.86721 2.91596 6.48241 2.45311C6.45312 2.4183 6.43875 2.37334 6.44241 2.32799C6.44607 2.28264 6.46747 2.24057 6.50196 2.21091L6.53906 2.17771ZM3.64256 1.13671C4.38281 1.13671 5.32421 1.83786 6.46681 3.23821C6.49195 3.26914 6.50573 3.30775 6.50586 3.34761C6.50391 3.44331 6.42776 3.51951 6.33206 3.51951L6.27346 3.51751C5.80487 3.51541 5.33638 3.53235 4.86916 3.56831C4.33206 3.61131 3.77151 3.68356 3.18751 3.78706C3.14329 3.7946 3.09787 3.78451 3.06099 3.75896C3.02412 3.7334 2.99873 3.69442 2.99026 3.65036L2.98046 3.60151C2.66596 1.95896 2.88666 1.13671 3.64256 1.13671ZM5.07811 4.04291H6.92186C6.97759 4.04293 7.03233 4.05754 7.08065 4.0853C7.12897 4.11305 7.16917 4.15298 7.19726 4.20111L8.12111 5.81051C8.14801 5.85855 8.16213 5.91268 8.16213 5.96773C8.16213 6.02279 8.14801 6.07692 8.12111 6.12496L7.19726 7.73631C7.16918 7.78443 7.12898 7.82435 7.08067 7.85211C7.03236 7.87986 6.97763 7.89448 6.92191 7.89451H5.07816C4.96486 7.89451 4.85941 7.83396 4.80466 7.73631L3.87891 6.12496C3.85201 6.07692 3.83788 6.02277 3.83788 5.96771C3.83788 5.91265 3.85201 5.8585 3.87891 5.81046L4.80471 4.20111C4.85936 4.10346 4.96486 4.04291 5.07811 4.04291ZM6.69336 4.43941C6.74909 4.43943 6.80383 4.45404 6.85215 4.4818C6.90047 4.50956 6.94067 4.54948 6.96876 4.59761L7.66406 5.81051C7.69096 5.85855 7.70508 5.91268 7.70508 5.96773C7.70508 6.02279 7.69096 6.07692 7.66406 6.12496L6.96876 7.33981C6.94067 7.38794 6.90047 7.42786 6.85215 7.45562C6.80383 7.48338 6.74909 7.49799 6.69336 7.49801H5.30666C5.19336 7.49801 5.08791 7.43746 5.03321 7.33981L4.33596 6.12496C4.30906 6.07692 4.29493 6.02277 4.29493 5.96771C4.29493 5.91265 4.30906 5.8585 4.33596 5.81046L5.03321 4.59761C5.08791 4.49996 5.19336 4.43941 5.30666 4.43941H6.69336ZM6.44726 4.87301H5.55276C5.43946 4.87301 5.33596 4.93161 5.27926 5.03121L4.83011 5.81051C4.80322 5.85855 4.7891 5.91268 4.7891 5.96773C4.7891 6.02279 4.80322 6.07692 4.83011 6.12496L5.27931 6.90621C5.30699 6.95426 5.34684 6.99418 5.39484 7.02195C5.44284 7.04972 5.49731 7.06437 5.55276 7.06441H6.44726C6.50273 7.06438 6.5572 7.04974 6.60522 7.02197C6.65323 6.99419 6.69308 6.95427 6.72076 6.90621L7.16991 6.12496C7.19682 6.07692 7.21094 6.02277 7.21094 5.96771C7.21094 5.91265 7.19682 5.8585 7.16991 5.81046L6.72071 5.03121C6.66406 4.93161 6.56056 4.87301 6.44726 4.87301ZM6.20901 5.28706C6.32226 5.28706 6.42776 5.34761 6.48241 5.44526L6.69341 5.81051C6.75001 5.90816 6.75001 6.02926 6.69341 6.12496L6.48241 6.49216C6.42776 6.58981 6.32226 6.65036 6.20901 6.65036H5.79101C5.73557 6.65031 5.68111 6.63566 5.63312 6.60789C5.58512 6.58012 5.54529 6.54021 5.51761 6.49216L5.30661 6.12496C5.25001 6.02926 5.25001 5.90816 5.30661 5.81046L5.51761 5.44526C5.54529 5.39721 5.58512 5.3573 5.63312 5.32953C5.68111 5.30176 5.73557 5.28711 5.79101 5.28706H6.20901ZM6.00001 5.69526C5.9521 5.6954 5.90506 5.7081 5.86359 5.73209C5.82212 5.75609 5.78766 5.79054 5.76366 5.83201C5.71486 5.91601 5.71486 6.01951 5.76366 6.10541C5.78777 6.14664 5.8223 6.1808 5.86379 6.20446C5.90527 6.22812 5.95225 6.24045 6.00001 6.24021C6.04777 6.24045 6.09475 6.22812 6.13624 6.20446C6.17773 6.1808 6.21226 6.14664 6.23636 6.10541C6.28516 6.01951 6.28516 5.91596 6.23636 5.83201C6.21236 5.79053 6.1779 5.75608 6.13641 5.73208C6.09493 5.70809 6.04793 5.69539 6.00001 5.69526ZM3.78906 5.96871H4.27931ZM9.49021 3.87496C9.68551 2.92771 9.72846 2.20306 9.60151 1.67576C9.52731 1.36126 9.39061 1.10736 9.18161 0.921859C8.96091 0.726509 8.68161 0.630859 8.36911 0.630859C7.85151 0.630859 7.30856 0.867159 6.72846 1.31441C6.49216 1.49606 6.24606 1.71676 5.99216 1.97261C5.97066 1.94721 5.94916 1.92186 5.92381 1.90036C5.20111 1.25776 4.59371 0.859359 4.07416 0.705059C3.76561 0.613259 3.47651 0.605409 3.21286 0.693309C2.93356 0.787059 2.71086 0.980409 2.55466 1.25191C2.29686 1.69916 2.22846 2.28901 2.32416 3.01561C2.36326 3.31051 2.43161 3.63276 2.52536 3.98236C2.48886 3.98664 2.45287 3.99452 2.41791 4.00586C1.50396 4.31046 0.855463 4.63466 0.462863 5.00771C0.230413 5.22841 0.0781128 5.47646 0.0214628 5.74796C-0.0351872 6.03701 0.0214628 6.32606 0.177713 6.59756C0.435513 7.04481 0.910113 7.39641 1.58591 7.67571C1.85741 7.78701 2.16401 7.88856 2.50776 7.98036C2.49169 8.01663 2.47989 8.05466 2.47261 8.09366C2.27731 9.03896 2.23436 9.76556 2.36131 10.2909C2.43551 10.6054 2.57416 10.8613 2.78121 11.0448C3.00191 11.2402 3.28121 11.3358 3.59371 11.3358C4.11131 11.3358 4.65421 11.0995 5.23436 10.6542C5.47261 10.4687 5.72066 10.246 5.97846 9.98621C6.00616 10.0279 6.03896 10.066 6.07611 10.0995C6.79881 10.7421 7.40621 11.1405 7.92576 11.2948C8.23436 11.3866 8.52341 11.3945 8.78706 11.3066C9.06636 11.2128 9.28906 11.0195 9.44526 10.748C9.70311 10.3007 9.77146 9.71086 9.67576 8.98431C9.63476 8.67766 9.56441 8.34366 9.46286 7.97841C9.50326 7.97458 9.54317 7.96674 9.58201 7.95501C10.496 7.65031 11.1445 7.32611 11.5371 6.95301C11.7695 6.73236 11.9219 6.48431 11.9785 6.21281C12.0351 5.92376 11.9785 5.63466 11.8222 5.36321C11.5644 4.91591 11.0898 4.56436 10.414 4.28506C10.1347 4.16986 9.81636 4.06436 9.46091 3.97256C9.4745 3.94128 9.48433 3.90855 9.49021 3.87496Z" fill="black"/>
</g>
<defs>
<clipPath id="clip0_4104_5682">
<rect width="12" height="12" fill="white"/>
</clipPath>
</defs>
</svg>
