<svg width="12" height="12" viewBox="0 0 12 12" fill="none" xmlns="http://www.w3.org/2000/svg">
<path d="M6 8.5C7.10455 8.5 8 7.60455 8 6.5H7C7 7.0523 6.5523 7.5 6 7.5C5.4477 7.5 5 7.0523 5 6.5H4C4 7.60455 4.89543 8.5 6 8.5ZM3.25 1C2.00736 1 1 2.00736 1 3.25C1 3.92865 1.3006 4.53666 1.77467 4.94875C1.59692 5.4328 1.5 5.9555 1.5 6.5C1.5 8.9853 3.51472 11 6 11C8.4853 11 10.5 8.9853 10.5 6.5C10.5 5.9555 10.4031 5.4328 10.2254 4.94875C10.6994 4.53666 11 3.92865 11 3.25C11 2.00736 9.99265 1 8.75 1C7.93685 1 7.22525 1.4312 6.83005 2.07648C6.56075 2.02623 6.28325 2 6 2C5.71675 2 5.43925 2.02623 5.16995 2.07648C4.77475 1.4312 4.06318 1 3.25 1ZM2 3.25C2 2.55964 2.55964 2 3.25 2C3.79017 2 4.25152 2.34289 4.42585 2.82448L4.5848 3.26359L5.03375 3.13495C5.34005 3.04717 5.6641 3 6 3C6.3359 3 6.65995 3.04717 6.96625 3.13495L7.4152 3.26359L7.57415 2.82448C7.7485 2.34289 8.20985 2 8.75 2C9.44035 2 10 2.55964 10 3.25C10 3.7165 9.7447 4.12402 9.36375 4.33929L8.95705 4.56916L9.1588 4.99053C9.37735 5.44695 9.5 5.95845 9.5 6.5C9.5 8.433 7.933 10 6 10C4.06701 10 2.5 8.433 2.5 6.5C2.5 5.95845 2.62265 5.44695 2.8412 4.99053L3.04297 4.56916L2.63624 4.3393C2.25532 4.12403 2 3.7165 2 3.25Z" fill="black"/>
</svg>
